<?xml version="1.0" encoding="UTF-8" standalone="no"?>
<!DOCTYPE svg PUBLIC "-//W3C//DTD SVG 1.1//EN"
 "http://www.w3.org/Graphics/SVG/1.1/DTD/svg11.dtd">
<!-- Generated by graphviz version 2.43.0 (0)
 -->
<!-- Title: finite_state_machine Pages: 1 -->
<svg width="435pt" height="154pt"
 viewBox="0.00 0.00 435.00 154.00" xmlns="http://www.w3.org/2000/svg" xmlns:xlink="http://www.w3.org/1999/xlink">
<g id="graph0" class="graph" transform="scale(1 1) rotate(0) translate(4 150)">
<title>finite_state_machine</title>
<polygon fill="white" stroke="transparent" points="-4,4 -4,-150 431,-150 431,4 -4,4"/>
<!-- 0 -->
<g id="node1" class="node">
<title>0</title>
<ellipse fill="none" stroke="black" cx="18" cy="-77" rx="18" ry="18"/>
<text text-anchor="middle" x="18" y="-73.3" font-family="Times,serif" font-size="14.00">0</text>
</g>
<!-- 2 -->
<g id="node2" class="node">
<title>2</title>
<ellipse fill="none" stroke="black" cx="200" cy="-128" rx="18" ry="18"/>
<text text-anchor="middle" x="200" y="-124.3" font-family="Times,serif" font-size="14.00">2</text>
</g>
<!-- 0&#45;&gt;2 -->
<g id="edge1" class="edge">
<title>0&#45;&gt;2</title>
<path fill="none" stroke="black" d="M34.04,-85.93C40.12,-89.34 47.27,-93.09 54,-96 93.09,-112.89 103.09,-118.47 145,-126 153.57,-127.54 163.02,-128.23 171.59,-128.47"/>
<polygon fill="black" stroke="black" points="171.81,-131.98 181.84,-128.59 171.88,-124.98 171.81,-131.98"/>
<text text-anchor="middle" x="109" y="-125.8" font-family="Times,serif" font-size="14.00">8</text>
</g>
<!-- 3 -->
<g id="node3" class="node">
<title>3</title>
<ellipse fill="none" stroke="black" cx="109" cy="-77" rx="18" ry="18"/>
<text text-anchor="middle" x="109" y="-73.3" font-family="Times,serif" font-size="14.00">3</text>
</g>
<!-- 0&#45;&gt;3 -->
<g id="edge2" class="edge">
<title>0&#45;&gt;3</title>
<path fill="none" stroke="black" d="M36.16,-77C48.72,-77 66.02,-77 80.5,-77"/>
<polygon fill="black" stroke="black" points="80.89,-80.5 90.89,-77 80.89,-73.5 80.89,-80.5"/>
<text text-anchor="middle" x="63.5" y="-80.8" font-family="Times,serif" font-size="14.00">10</text>
</g>
<!-- 1 -->
<g id="node4" class="node">
<title>1</title>
<ellipse fill="none" stroke="black" cx="200" cy="-18" rx="18" ry="18"/>
<text text-anchor="middle" x="200" y="-14.3" font-family="Times,serif" font-size="14.00">1</text>
</g>
<!-- 0&#45;&gt;1 -->
<g id="edge3" class="edge">
<title>0&#45;&gt;1</title>
<path fill="none" stroke="black" d="M32.84,-66.8C46.8,-57.05 69.32,-42.72 91,-35 117.43,-25.59 149.34,-21.38 171.6,-19.5"/>
<polygon fill="black" stroke="black" points="171.97,-22.98 181.68,-18.75 171.45,-16 171.97,-22.98"/>
<text text-anchor="middle" x="109" y="-38.8" font-family="Times,serif" font-size="14.00">7</text>
</g>
<!-- 4 -->
<g id="node5" class="node">
<title>4</title>
<ellipse fill="none" stroke="black" cx="318" cy="-71" rx="18" ry="18"/>
<text text-anchor="middle" x="318" y="-67.3" font-family="Times,serif" font-size="14.00">4</text>
</g>
<!-- 2&#45;&gt;4 -->
<g id="edge10" class="edge">
<title>2&#45;&gt;4</title>
<path fill="none" stroke="black" d="M216.73,-121.32C233.2,-114.21 259.71,-102.43 282,-91 285.68,-89.11 289.52,-87.03 293.26,-84.95"/>
<polygon fill="black" stroke="black" points="295.22,-87.86 302.18,-79.87 291.75,-81.78 295.22,-87.86"/>
<text text-anchor="middle" x="259" y="-115.8" font-family="Times,serif" font-size="14.00">10011</text>
</g>
<!-- 3&#45;&gt;2 -->
<g id="edge5" class="edge">
<title>3&#45;&gt;2</title>
<path fill="none" stroke="black" d="M125.1,-85.65C138.86,-93.54 159.42,-105.32 175.36,-114.45"/>
<polygon fill="black" stroke="black" points="173.71,-117.54 184.13,-119.48 177.19,-111.47 173.71,-117.54"/>
<text text-anchor="middle" x="154.5" y="-110.8" font-family="Times,serif" font-size="14.00">2</text>
</g>
<!-- 3&#45;&gt;1 -->
<g id="edge6" class="edge">
<title>3&#45;&gt;1</title>
<path fill="none" stroke="black" d="M122.84,-65.38C129.28,-59.83 137.31,-53.25 145,-48 154.3,-41.65 165.05,-35.46 174.5,-30.37"/>
<polygon fill="black" stroke="black" points="176.2,-33.43 183.42,-25.68 172.94,-27.24 176.2,-33.43"/>
<text text-anchor="middle" x="154.5" y="-51.8" font-family="Times,serif" font-size="14.00">11</text>
</g>
<!-- 3&#45;&gt;4 -->
<g id="edge4" class="edge">
<title>3&#45;&gt;4</title>
<path fill="none" stroke="black" d="M127.29,-76.5C163.3,-75.45 246.57,-73.04 289.82,-71.79"/>
<polygon fill="black" stroke="black" points="290.01,-75.28 299.9,-71.5 289.8,-68.29 290.01,-75.28"/>
<text text-anchor="middle" x="200" y="-77.8" font-family="Times,serif" font-size="14.00">5</text>
</g>
<!-- 1&#45;&gt;4 -->
<g id="edge7" class="edge">
<title>1&#45;&gt;4</title>
<path fill="none" stroke="black" d="M217.6,-22.93C234.3,-28.16 260.59,-37.18 282,-48 286.2,-50.12 290.52,-52.64 294.62,-55.23"/>
<polygon fill="black" stroke="black" points="292.86,-58.26 303.13,-60.84 296.71,-52.41 292.86,-58.26"/>
<text text-anchor="middle" x="259" y="-51.8" font-family="Times,serif" font-size="14.00">1</text>
</g>
<!-- 5 -->
<g id="node6" class="node">
<title>5</title>
<ellipse fill="none" stroke="black" cx="409" cy="-30" rx="18" ry="18"/>
<text text-anchor="middle" x="409" y="-26.3" font-family="Times,serif" font-size="14.00">5</text>
</g>
<!-- 1&#45;&gt;5 -->
<g id="edge8" class="edge">
<title>1&#45;&gt;5</title>
<path fill="none" stroke="black" d="M218.29,-19C254.3,-21.09 337.57,-25.92 380.82,-28.42"/>
<polygon fill="black" stroke="black" points="380.72,-31.92 390.9,-29.01 381.12,-24.94 380.72,-31.92"/>
<text text-anchor="middle" x="318" y="-29.8" font-family="Times,serif" font-size="14.00">21</text>
</g>
<!-- 4&#45;&gt;5 -->
<g id="edge9" class="edge">
<title>4&#45;&gt;5</title>
<path fill="none" stroke="black" d="M334.91,-63.67C348.2,-57.55 367.39,-48.71 382.77,-41.62"/>
<polygon fill="black" stroke="black" points="384.61,-44.63 392.23,-37.27 381.68,-38.27 384.61,-44.63"/>
<text text-anchor="middle" x="363.5" y="-57.8" font-family="Times,serif" font-size="14.00">14</text>
</g>
</g>
</svg>
