<?xml version="1.0" encoding="UTF-8" standalone="no"?>
<!DOCTYPE svg PUBLIC "-//W3C//DTD SVG 1.1//EN"
 "http://www.w3.org/Graphics/SVG/1.1/DTD/svg11.dtd">
<!-- Generated by graphviz version 2.43.0 (0)
 -->
<!-- Title: finite_state_machine Pages: 1 -->
<svg width="126pt" height="109pt"
 viewBox="0.00 0.00 126.00 109.00" xmlns="http://www.w3.org/2000/svg" xmlns:xlink="http://www.w3.org/1999/xlink">
<g id="graph0" class="graph" transform="scale(1 1) rotate(0) translate(4 105)">
<title>finite_state_machine</title>
<polygon fill="white" stroke="transparent" points="-4,4 -4,-105 122,-105 122,4 -4,4"/>
<!-- 1 -->
<g id="node1" class="node">
<title>1</title>
<ellipse fill="none" stroke="black" cx="18" cy="-45" rx="18" ry="18"/>
<text text-anchor="middle" x="18" y="-41.3" font-family="Times,serif" font-size="14.00">1</text>
</g>
<!-- 2 -->
<g id="node2" class="node">
<title>2</title>
<ellipse fill="none" stroke="black" cx="100" cy="-83" rx="18" ry="18"/>
<text text-anchor="middle" x="100" y="-79.3" font-family="Times,serif" font-size="14.00">2</text>
</g>
<!-- 1&#45;&gt;2 -->
<g id="edge1" class="edge">
<title>1&#45;&gt;2</title>
<path fill="none" stroke="black" d="M34.81,-52.51C46.05,-57.85 61.39,-65.14 74.25,-71.25"/>
<polygon fill="black" stroke="black" points="72.97,-74.51 83.5,-75.64 75.97,-68.19 72.97,-74.51"/>
<text text-anchor="middle" x="59" y="-69.8" font-family="Times,serif" font-size="14.00">1</text>
</g>
<!-- 0 -->
<g id="node3" class="node">
<title>0</title>
<ellipse fill="none" stroke="black" cx="100" cy="-18" rx="18" ry="18"/>
<text text-anchor="middle" x="100" y="-14.3" font-family="Times,serif" font-size="14.00">0</text>
</g>
<!-- 1&#45;&gt;0 -->
<g id="edge2" class="edge">
<title>1&#45;&gt;0</title>
<path fill="none" stroke="black" d="M35.19,-39.54C46.03,-35.88 60.55,-30.98 72.99,-26.78"/>
<polygon fill="black" stroke="black" points="74.48,-29.97 82.83,-23.46 72.24,-23.34 74.48,-29.97"/>
<text text-anchor="middle" x="59" y="-36.8" font-family="Times,serif" font-size="14.00">1</text>
</g>
<!-- 0&#45;&gt;1 -->
<g id="edge3" class="edge">
<title>0&#45;&gt;1</title>
<path fill="none" stroke="black" d="M83.12,-10.95C74.28,-8.05 63.24,-6.17 54,-10 47.17,-12.83 40.98,-17.71 35.77,-22.94"/>
<polygon fill="black" stroke="black" points="32.93,-20.87 28.88,-30.66 38.15,-25.53 32.93,-20.87"/>
<text text-anchor="middle" x="59" y="-13.8" font-family="Times,serif" font-size="14.00">1</text>
</g>
</g>
</svg>
