<?xml version="1.0" encoding="UTF-8" standalone="no"?>
<!DOCTYPE svg PUBLIC "-//W3C//DTD SVG 1.1//EN"
 "http://www.w3.org/Graphics/SVG/1.1/DTD/svg11.dtd">
<!-- Generated by graphviz version 2.43.0 (0)
 -->
<!-- Title: finite_state_machine Pages: 1 -->
<svg width="472pt" height="184pt"
 viewBox="0.00 0.00 472.00 184.00" xmlns="http://www.w3.org/2000/svg" xmlns:xlink="http://www.w3.org/1999/xlink">
<g id="graph0" class="graph" transform="scale(1 1) rotate(0) translate(4 180)">
<title>finite_state_machine</title>
<polygon fill="white" stroke="transparent" points="-4,4 -4,-180 468,-180 468,4 -4,4"/>
<!-- 0 -->
<g id="node1" class="node">
<title>0</title>
<ellipse fill="none" stroke="black" cx="18" cy="-18" rx="18" ry="18"/>
<text text-anchor="middle" x="18" y="-14.3" font-family="Times,serif" font-size="14.00">0</text>
</g>
<!-- 2 -->
<g id="node2" class="node">
<title>2</title>
<ellipse fill="none" stroke="black" cx="100" cy="-89" rx="18" ry="18"/>
<text text-anchor="middle" x="100" y="-85.3" font-family="Times,serif" font-size="14.00">2</text>
</g>
<!-- 0&#45;&gt;2 -->
<g id="edge1" class="edge">
<title>0&#45;&gt;2</title>
<path fill="none" stroke="black" d="M32.21,-29.72C44.79,-40.89 63.92,-57.86 78.48,-70.79"/>
<polygon fill="black" stroke="black" points="76.23,-73.47 86.04,-77.49 80.88,-68.24 76.23,-73.47"/>
<text text-anchor="middle" x="59" y="-60.8" font-family="Times,serif" font-size="14.00">8</text>
</g>
<!-- 3 -->
<g id="node3" class="node">
<title>3</title>
<ellipse fill="none" stroke="black" cx="182" cy="-51" rx="18" ry="18"/>
<text text-anchor="middle" x="182" y="-47.3" font-family="Times,serif" font-size="14.00">3</text>
</g>
<!-- 0&#45;&gt;3 -->
<g id="edge2" class="edge">
<title>0&#45;&gt;3</title>
<path fill="none" stroke="black" d="M35.73,-21.41C63.74,-27.11 120.37,-38.65 154.06,-45.51"/>
<polygon fill="black" stroke="black" points="153.62,-49 164.12,-47.56 155.02,-42.14 153.62,-49"/>
<text text-anchor="middle" x="100" y="-40.8" font-family="Times,serif" font-size="14.00">10</text>
</g>
<!-- 1 -->
<g id="node4" class="node">
<title>1</title>
<ellipse fill="none" stroke="black" cx="273" cy="-18" rx="18" ry="18"/>
<text text-anchor="middle" x="273" y="-14.3" font-family="Times,serif" font-size="14.00">1</text>
</g>
<!-- 0&#45;&gt;1 -->
<g id="edge3" class="edge">
<title>0&#45;&gt;1</title>
<path fill="none" stroke="black" d="M36.39,-18C79.64,-18 192.35,-18 244.63,-18"/>
<polygon fill="black" stroke="black" points="244.82,-21.5 254.82,-18 244.82,-14.5 244.82,-21.5"/>
<text text-anchor="middle" x="141" y="-21.8" font-family="Times,serif" font-size="14.00">7</text>
</g>
<!-- 2&#45;&gt;3 -->
<g id="edge9" class="edge">
<title>2&#45;&gt;3</title>
<path fill="none" stroke="black" d="M116.81,-81.49C128.05,-76.15 143.39,-68.86 156.25,-62.75"/>
<polygon fill="black" stroke="black" points="157.97,-65.81 165.5,-58.36 154.97,-59.49 157.97,-65.81"/>
<text text-anchor="middle" x="141" y="-75.8" font-family="Times,serif" font-size="14.00">2</text>
</g>
<!-- 4 -->
<g id="node5" class="node">
<title>4</title>
<ellipse fill="none" stroke="black" cx="355" cy="-80" rx="18" ry="18"/>
<text text-anchor="middle" x="355" y="-76.3" font-family="Times,serif" font-size="14.00">4</text>
</g>
<!-- 2&#45;&gt;4 -->
<g id="edge10" class="edge">
<title>2&#45;&gt;4</title>
<path fill="none" stroke="black" d="M109.03,-105.04C114.98,-115.04 124.11,-127.09 136,-133 208.82,-169.23 247.85,-172.4 319,-133 329.78,-127.03 337.82,-116.17 343.46,-105.82"/>
<polygon fill="black" stroke="black" points="346.71,-107.15 347.97,-96.63 340.42,-104.06 346.71,-107.15"/>
<text text-anchor="middle" x="227.5" y="-164.8" font-family="Times,serif" font-size="14.00">10</text>
</g>
<!-- 3&#45;&gt;2 -->
<g id="edge8" class="edge">
<title>3&#45;&gt;2</title>
<path fill="none" stroke="black" d="M164.08,-48.36C155.34,-47.72 144.71,-48.13 136,-52 128.78,-55.21 122.33,-60.68 117,-66.45"/>
<polygon fill="black" stroke="black" points="114.16,-64.4 110.45,-74.32 119.54,-68.87 114.16,-64.4"/>
<text text-anchor="middle" x="141" y="-55.8" font-family="Times,serif" font-size="14.00">0</text>
</g>
<!-- 3&#45;&gt;1 -->
<g id="edge7" class="edge">
<title>3&#45;&gt;1</title>
<path fill="none" stroke="black" d="M199.32,-44.95C212.37,-40.11 230.91,-33.24 246,-27.64"/>
<polygon fill="black" stroke="black" points="247.62,-30.77 255.78,-24.01 245.19,-24.21 247.62,-30.77"/>
<text text-anchor="middle" x="227.5" y="-40.8" font-family="Times,serif" font-size="14.00">11</text>
</g>
<!-- 3&#45;&gt;4 -->
<g id="edge6" class="edge">
<title>3&#45;&gt;4</title>
<path fill="none" stroke="black" d="M200.02,-53.89C229.73,-58.92 291.25,-69.36 326.88,-75.4"/>
<polygon fill="black" stroke="black" points="326.6,-78.9 337.05,-77.13 327.77,-72 326.6,-78.9"/>
<text text-anchor="middle" x="273" y="-71.8" font-family="Times,serif" font-size="14.00">5</text>
</g>
<!-- 1&#45;&gt;4 -->
<g id="edge4" class="edge">
<title>1&#45;&gt;4</title>
<path fill="none" stroke="black" d="M289.06,-26.75C298.03,-32.19 309.49,-39.55 319,-47 324.26,-51.12 329.66,-55.89 334.59,-60.5"/>
<polygon fill="black" stroke="black" points="332.23,-63.09 341.86,-67.5 337.08,-58.05 332.23,-63.09"/>
<text text-anchor="middle" x="314" y="-50.8" font-family="Times,serif" font-size="14.00">1</text>
</g>
<!-- 5 -->
<g id="node6" class="node">
<title>5</title>
<ellipse fill="none" stroke="black" cx="446" cy="-46" rx="18" ry="18"/>
<text text-anchor="middle" x="446" y="-42.3" font-family="Times,serif" font-size="14.00">5</text>
</g>
<!-- 1&#45;&gt;5 -->
<g id="edge5" class="edge">
<title>1&#45;&gt;5</title>
<path fill="none" stroke="black" d="M291.25,-20.09C317.14,-23.34 367.54,-30.04 410,-38 412.72,-38.51 415.55,-39.08 418.37,-39.68"/>
<polygon fill="black" stroke="black" points="417.8,-43.14 428.32,-41.91 419.32,-36.31 417.8,-43.14"/>
<text text-anchor="middle" x="355" y="-34.8" font-family="Times,serif" font-size="14.00">21</text>
</g>
<!-- 4&#45;&gt;2 -->
<g id="edge11" class="edge">
<title>4&#45;&gt;2</title>
<path fill="none" stroke="black" d="M337.36,-83.94C331.58,-85.15 325.04,-86.33 319,-87 242.56,-95.46 222.9,-90.11 146,-91 141.56,-91.05 140.44,-91.13 136,-91 133.44,-90.93 130.79,-90.82 128.13,-90.7"/>
<polygon fill="black" stroke="black" points="128.25,-87.21 118.08,-90.17 127.88,-94.2 128.25,-87.21"/>
<text text-anchor="middle" x="227.5" y="-94.8" font-family="Times,serif" font-size="14.00">2</text>
</g>
<!-- 4&#45;&gt;5 -->
<g id="edge12" class="edge">
<title>4&#45;&gt;5</title>
<path fill="none" stroke="black" d="M366.67,-65.85C372.9,-58.78 381.41,-50.91 391,-47 399.27,-43.63 408.86,-42.63 417.65,-42.7"/>
<polygon fill="black" stroke="black" points="417.65,-46.2 427.82,-43.23 418.02,-39.21 417.65,-46.2"/>
<text text-anchor="middle" x="400.5" y="-50.8" font-family="Times,serif" font-size="14.00">12</text>
</g>
<!-- 5&#45;&gt;4 -->
<g id="edge13" class="edge">
<title>5&#45;&gt;4</title>
<path fill="none" stroke="black" d="M429.47,-53.53C423.45,-56.34 416.46,-59.45 410,-62 401.14,-65.49 391.31,-68.9 382.48,-71.8"/>
<polygon fill="black" stroke="black" points="381.16,-68.55 372.71,-74.94 383.3,-75.21 381.16,-68.55"/>
<text text-anchor="middle" x="400.5" y="-71.8" font-family="Times,serif" font-size="14.00">2</text>
</g>
</g>
</svg>
