<?xml version="1.0" encoding="UTF-8" standalone="no"?>
<!DOCTYPE svg PUBLIC "-//W3C//DTD SVG 1.1//EN"
 "http://www.w3.org/Graphics/SVG/1.1/DTD/svg11.dtd">
<!-- Generated by graphviz version 2.43.0 (0)
 -->
<!-- Title: finite_state_machine Pages: 1 -->
<svg width="208pt" height="46pt"
 viewBox="0.00 0.00 208.00 46.38" xmlns="http://www.w3.org/2000/svg" xmlns:xlink="http://www.w3.org/1999/xlink">
<g id="graph0" class="graph" transform="scale(1 1) rotate(0) translate(4 42.38)">
<title>finite_state_machine</title>
<polygon fill="white" stroke="transparent" points="-4,4 -4,-42.38 204,-42.38 204,4 -4,4"/>
<!-- 0 -->
<g id="node1" class="node">
<title>0</title>
<ellipse fill="none" stroke="black" cx="18" cy="-20.38" rx="18" ry="18"/>
<text text-anchor="middle" x="18" y="-16.68" font-family="Times,serif" font-size="14.00">0</text>
</g>
<!-- 1 -->
<g id="node2" class="node">
<title>1</title>
<ellipse fill="none" stroke="black" cx="100" cy="-20.38" rx="18" ry="18"/>
<text text-anchor="middle" x="100" y="-16.68" font-family="Times,serif" font-size="14.00">1</text>
</g>
<!-- 0&#45;&gt;1 -->
<g id="edge1" class="edge">
<title>0&#45;&gt;1</title>
<path fill="none" stroke="black" d="M36.36,-20.38C46.7,-20.38 60.06,-20.38 71.78,-20.38"/>
<polygon fill="black" stroke="black" points="71.95,-23.88 81.95,-20.38 71.95,-16.88 71.95,-23.88"/>
<text text-anchor="middle" x="59" y="-24.18" font-family="Times,serif" font-size="14.00">0</text>
</g>
<!-- 1&#45;&gt;0 -->
<g id="edge2" class="edge">
<title>1&#45;&gt;0</title>
<path fill="none" stroke="black" d="M85.19,-9.38C76.47,-3.76 64.85,1.38 54,-1.38 50.04,-2.38 46.05,-3.94 42.24,-5.73"/>
<polygon fill="black" stroke="black" points="40.48,-2.71 33.31,-10.51 43.78,-8.88 40.48,-2.71"/>
<text text-anchor="middle" x="59" y="-5.18" font-family="Times,serif" font-size="14.00">1</text>
</g>
<!-- 2 -->
<g id="node3" class="node">
<title>2</title>
<ellipse fill="none" stroke="black" cx="182" cy="-20.38" rx="18" ry="18"/>
<text text-anchor="middle" x="182" y="-16.68" font-family="Times,serif" font-size="14.00">2</text>
</g>
<!-- 1&#45;&gt;2 -->
<g id="edge3" class="edge">
<title>1&#45;&gt;2</title>
<path fill="none" stroke="black" d="M118.36,-20.38C128.7,-20.38 142.06,-20.38 153.78,-20.38"/>
<polygon fill="black" stroke="black" points="153.95,-23.88 163.95,-20.38 153.95,-16.88 153.95,-23.88"/>
<text text-anchor="middle" x="141" y="-24.18" font-family="Times,serif" font-size="14.00">0</text>
</g>
<!-- 2&#45;&gt;1 -->
<g id="edge4" class="edge">
<title>2&#45;&gt;1</title>
<path fill="none" stroke="black" d="M167.19,-9.38C158.47,-3.76 146.85,1.38 136,-1.38 132.04,-2.38 128.05,-3.94 124.24,-5.73"/>
<polygon fill="black" stroke="black" points="122.48,-2.71 115.31,-10.51 125.78,-8.88 122.48,-2.71"/>
<text text-anchor="middle" x="141" y="-5.18" font-family="Times,serif" font-size="14.00">1</text>
</g>
</g>
</svg>
