<?xml version="1.0" encoding="UTF-8" standalone="no"?>
<!DOCTYPE svg PUBLIC "-//W3C//DTD SVG 1.1//EN"
 "http://www.w3.org/Graphics/SVG/1.1/DTD/svg11.dtd">
<!-- Generated by graphviz version 2.43.0 (0)
 -->
<!-- Title: finite_state_machine Pages: 1 -->
<svg width="390pt" height="286pt"
 viewBox="0.00 0.00 390.00 286.00" xmlns="http://www.w3.org/2000/svg" xmlns:xlink="http://www.w3.org/1999/xlink">
<g id="graph0" class="graph" transform="scale(1 1) rotate(0) translate(4 282)">
<title>finite_state_machine</title>
<polygon fill="white" stroke="transparent" points="-4,4 -4,-282 386,-282 386,4 -4,4"/>
<!-- 1 -->
<g id="node1" class="node">
<title>1</title>
<ellipse fill="none" stroke="black" cx="18" cy="-235" rx="18" ry="18"/>
<text text-anchor="middle" x="18" y="-231.3" font-family="Times,serif" font-size="14.00">1</text>
</g>
<!-- 4 -->
<g id="node2" class="node">
<title>4</title>
<ellipse fill="none" stroke="black" cx="100" cy="-160" rx="18" ry="18"/>
<text text-anchor="middle" x="100" y="-156.3" font-family="Times,serif" font-size="14.00">4</text>
</g>
<!-- 1&#45;&gt;4 -->
<g id="edge1" class="edge">
<title>1&#45;&gt;4</title>
<path fill="none" stroke="black" d="M31.85,-222.95C44.45,-211.14 63.85,-192.96 78.56,-179.16"/>
<polygon fill="black" stroke="black" points="81.28,-181.41 86.18,-172.02 76.49,-176.31 81.28,-181.41"/>
<text text-anchor="middle" x="59" y="-204.8" font-family="Times,serif" font-size="14.00">1</text>
</g>
<!-- 5 -->
<g id="node3" class="node">
<title>5</title>
<ellipse fill="none" stroke="black" cx="191" cy="-218" rx="18" ry="18"/>
<text text-anchor="middle" x="191" y="-214.3" font-family="Times,serif" font-size="14.00">5</text>
</g>
<!-- 1&#45;&gt;5 -->
<g id="edge2" class="edge">
<title>1&#45;&gt;5</title>
<path fill="none" stroke="black" d="M36.23,-234.1C62.09,-232.64 112.46,-229.36 155,-224 157.57,-223.68 160.24,-223.3 162.9,-222.89"/>
<polygon fill="black" stroke="black" points="163.66,-226.31 172.96,-221.24 162.52,-219.41 163.66,-226.31"/>
<text text-anchor="middle" x="100" y="-233.8" font-family="Times,serif" font-size="14.00">21</text>
</g>
<!-- 4&#45;&gt;5 -->
<g id="edge13" class="edge">
<title>4&#45;&gt;5</title>
<path fill="none" stroke="black" d="M111.86,-173.67C118.27,-181.04 126.89,-189.86 136,-196 144.51,-201.73 154.74,-206.38 164,-209.89"/>
<polygon fill="black" stroke="black" points="162.95,-213.23 173.54,-213.26 165.28,-206.63 162.95,-213.23"/>
<text text-anchor="middle" x="145.5" y="-208.8" font-family="Times,serif" font-size="14.00">14</text>
</g>
<!-- 2 -->
<g id="node5" class="node">
<title>2</title>
<ellipse fill="none" stroke="black" cx="191" cy="-79" rx="18" ry="18"/>
<text text-anchor="middle" x="191" y="-75.3" font-family="Times,serif" font-size="14.00">2</text>
</g>
<!-- 4&#45;&gt;2 -->
<g id="edge12" class="edge">
<title>4&#45;&gt;2</title>
<path fill="none" stroke="black" d="M111.53,-145.61C118.09,-137.12 126.98,-126.42 136,-118 145.32,-109.3 156.63,-100.86 166.48,-94.07"/>
<polygon fill="black" stroke="black" points="168.67,-96.82 175.03,-88.34 164.77,-91.01 168.67,-96.82"/>
<text text-anchor="middle" x="145.5" y="-121.8" font-family="Times,serif" font-size="14.00">0</text>
</g>
<!-- 5&#45;&gt;4 -->
<g id="edge14" class="edge">
<title>5&#45;&gt;4</title>
<path fill="none" stroke="black" d="M180.57,-203.26C174.29,-194.51 165.3,-183.82 155,-177 146.9,-171.64 137.01,-167.89 127.91,-165.3"/>
<polygon fill="black" stroke="black" points="128.67,-161.88 118.12,-162.84 126.97,-168.67 128.67,-161.88"/>
<text text-anchor="middle" x="145.5" y="-180.8" font-family="Times,serif" font-size="14.00">0</text>
</g>
<!-- 0 -->
<g id="node4" class="node">
<title>0</title>
<ellipse fill="none" stroke="black" cx="364" cy="-62" rx="18" ry="18"/>
<text text-anchor="middle" x="364" y="-58.3" font-family="Times,serif" font-size="14.00">0</text>
</g>
<!-- 0&#45;&gt;1 -->
<g id="edge4" class="edge">
<title>0&#45;&gt;1</title>
<path fill="none" stroke="black" d="M352.33,-47.93C337.12,-29.64 307.33,0 274,0 99,0 99,0 99,0 55.71,0 31.1,-144.7 22.51,-207.01"/>
<polygon fill="black" stroke="black" points="19.04,-206.57 21.18,-216.95 25.97,-207.5 19.04,-206.57"/>
<text text-anchor="middle" x="191" y="-3.8" font-family="Times,serif" font-size="14.00">7</text>
</g>
<!-- 0&#45;&gt;2 -->
<g id="edge3" class="edge">
<title>0&#45;&gt;2</title>
<path fill="none" stroke="black" d="M345.69,-61.64C319.72,-61.39 269.21,-61.98 227,-69 224.08,-69.49 221.05,-70.13 218.06,-70.86"/>
<polygon fill="black" stroke="black" points="216.93,-67.54 208.21,-73.54 218.77,-74.29 216.93,-67.54"/>
<text text-anchor="middle" x="273" y="-68.8" font-family="Times,serif" font-size="14.00">8</text>
</g>
<!-- 3 -->
<g id="node6" class="node">
<title>3</title>
<ellipse fill="none" stroke="black" cx="273" cy="-117" rx="18" ry="18"/>
<text text-anchor="middle" x="273" y="-113.3" font-family="Times,serif" font-size="14.00">3</text>
</g>
<!-- 0&#45;&gt;3 -->
<g id="edge5" class="edge">
<title>0&#45;&gt;3</title>
<path fill="none" stroke="black" d="M346,-65.4C334.87,-68.15 320.33,-72.78 309,-80 302.69,-84.02 296.72,-89.43 291.57,-94.87"/>
<polygon fill="black" stroke="black" points="288.64,-92.89 284.64,-102.7 293.89,-97.53 288.64,-92.89"/>
<text text-anchor="middle" x="318.5" y="-83.8" font-family="Times,serif" font-size="14.00">10</text>
</g>
<!-- 2&#45;&gt;4 -->
<g id="edge11" class="edge">
<title>2&#45;&gt;4</title>
<path fill="none" stroke="black" d="M173.02,-74.86C161.61,-73.09 146.76,-72.82 136,-80 118.53,-91.66 109.71,-114.14 105.31,-132.31"/>
<polygon fill="black" stroke="black" points="101.87,-131.62 103.24,-142.12 108.72,-133.06 101.87,-131.62"/>
<text text-anchor="middle" x="145.5" y="-83.8" font-family="Times,serif" font-size="14.00">12</text>
</g>
<!-- 2&#45;&gt;3 -->
<g id="edge10" class="edge">
<title>2&#45;&gt;3</title>
<path fill="none" stroke="black" d="M208.52,-74.19C217.35,-72.51 228.18,-71.93 237,-76 245.01,-79.69 251.86,-86.22 257.33,-93"/>
<polygon fill="black" stroke="black" points="254.79,-95.47 263.49,-101.52 260.47,-91.36 254.79,-95.47"/>
<text text-anchor="middle" x="232" y="-79.8" font-family="Times,serif" font-size="14.00">0</text>
</g>
<!-- 3&#45;&gt;1 -->
<g id="edge7" class="edge">
<title>3&#45;&gt;1</title>
<path fill="none" stroke="black" d="M269.1,-134.83C263.35,-163.65 247.57,-219.8 209,-245 158.48,-278 83.32,-258.81 44.4,-245.11"/>
<polygon fill="black" stroke="black" points="45.47,-241.78 34.88,-241.61 43.06,-248.35 45.47,-241.78"/>
<text text-anchor="middle" x="145.5" y="-266.8" font-family="Times,serif" font-size="14.00">11</text>
</g>
<!-- 3&#45;&gt;4 -->
<g id="edge6" class="edge">
<title>3&#45;&gt;4</title>
<path fill="none" stroke="black" d="M255.48,-121.16C225.78,-128.62 163.17,-144.37 127.44,-153.35"/>
<polygon fill="black" stroke="black" points="126.55,-149.97 117.71,-155.8 128.26,-156.75 126.55,-149.97"/>
<text text-anchor="middle" x="191" y="-144.8" font-family="Times,serif" font-size="14.00">5</text>
</g>
<!-- 3&#45;&gt;0 -->
<g id="edge8" class="edge">
<title>3&#45;&gt;0</title>
<path fill="none" stroke="black" d="M290.35,-112.1C301.48,-108.36 316.25,-102.56 328,-95 333.62,-91.38 339.15,-86.8 344.1,-82.21"/>
<polygon fill="black" stroke="black" points="346.63,-84.63 351.31,-75.13 341.73,-79.64 346.63,-84.63"/>
<text text-anchor="middle" x="318.5" y="-107.8" font-family="Times,serif" font-size="14.00">0</text>
</g>
<!-- 3&#45;&gt;2 -->
<g id="edge9" class="edge">
<title>3&#45;&gt;2</title>
<path fill="none" stroke="black" d="M256.5,-109.64C245.33,-104.33 230,-97.05 217.1,-90.92"/>
<polygon fill="black" stroke="black" points="218.34,-87.64 207.81,-86.51 215.34,-93.96 218.34,-87.64"/>
<text text-anchor="middle" x="232" y="-103.8" font-family="Times,serif" font-size="14.00">2</text>
</g>
</g>
</svg>
