<?xml version="1.0" encoding="UTF-8" standalone="no"?>
<!DOCTYPE svg PUBLIC "-//W3C//DTD SVG 1.1//EN"
 "http://www.w3.org/Graphics/SVG/1.1/DTD/svg11.dtd">
<!-- Generated by graphviz version 2.43.0 (0)
 -->
<!-- Title: finite_state_machine Pages: 1 -->
<svg width="472pt" height="295pt"
 viewBox="0.00 0.00 472.00 295.00" xmlns="http://www.w3.org/2000/svg" xmlns:xlink="http://www.w3.org/1999/xlink">
<g id="graph0" class="graph" transform="scale(1 1) rotate(0) translate(4 291)">
<title>finite_state_machine</title>
<polygon fill="white" stroke="transparent" points="-4,4 -4,-291 468,-291 468,4 -4,4"/>
<!-- 3 -->
<g id="node1" class="node">
<title>3</title>
<ellipse fill="none" stroke="black" cx="18" cy="-66" rx="18" ry="18"/>
<text text-anchor="middle" x="18" y="-62.3" font-family="Times,serif" font-size="14.00">3</text>
</g>
<!-- 4 -->
<g id="node2" class="node">
<title>4</title>
<ellipse fill="none" stroke="black" cx="100" cy="-175" rx="18" ry="18"/>
<text text-anchor="middle" x="100" y="-171.3" font-family="Times,serif" font-size="14.00">4</text>
</g>
<!-- 3&#45;&gt;4 -->
<g id="edge1" class="edge">
<title>3&#45;&gt;4</title>
<path fill="none" stroke="black" d="M29.46,-80.25C42.93,-98.61 66.52,-130.74 82.44,-152.44"/>
<polygon fill="black" stroke="black" points="79.8,-154.76 88.54,-160.75 85.44,-150.61 79.8,-154.76"/>
<text text-anchor="middle" x="59" y="-130.8" font-family="Times,serif" font-size="14.00">5</text>
</g>
<!-- 2 -->
<g id="node3" class="node">
<title>2</title>
<ellipse fill="none" stroke="black" cx="191" cy="-122" rx="18" ry="18"/>
<text text-anchor="middle" x="191" y="-118.3" font-family="Times,serif" font-size="14.00">2</text>
</g>
<!-- 3&#45;&gt;2 -->
<g id="edge2" class="edge">
<title>3&#45;&gt;2</title>
<path fill="none" stroke="black" d="M35.4,-71.37C65.14,-81.11 128.23,-101.77 163.94,-113.46"/>
<polygon fill="black" stroke="black" points="163.06,-116.86 173.65,-116.65 165.24,-110.21 163.06,-116.86"/>
<text text-anchor="middle" x="100" y="-100.8" font-family="Times,serif" font-size="14.00">2</text>
</g>
<!-- 1 -->
<g id="node4" class="node">
<title>1</title>
<ellipse fill="none" stroke="black" cx="355" cy="-146" rx="18" ry="18"/>
<text text-anchor="middle" x="355" y="-142.3" font-family="Times,serif" font-size="14.00">1</text>
</g>
<!-- 3&#45;&gt;1 -->
<g id="edge3" class="edge">
<title>3&#45;&gt;1</title>
<path fill="none" stroke="black" d="M28.05,-51.02C41.09,-31.55 67.13,0 99,0 99,0 99,0 274,0 327.29,0 345.32,-75.73 351.23,-118.11"/>
<polygon fill="black" stroke="black" points="347.77,-118.61 352.49,-128.1 354.71,-117.74 347.77,-118.61"/>
<text text-anchor="middle" x="191" y="-3.8" font-family="Times,serif" font-size="14.00">11</text>
</g>
<!-- 4&#45;&gt;2 -->
<g id="edge11" class="edge">
<title>4&#45;&gt;2</title>
<path fill="none" stroke="black" d="M107.46,-158.54C113.07,-146.66 122.45,-131.46 136,-124 144.03,-119.58 153.81,-118.24 162.82,-118.28"/>
<polygon fill="black" stroke="black" points="162.71,-121.78 172.9,-118.85 163.11,-114.79 162.71,-121.78"/>
<text text-anchor="middle" x="145.5" y="-127.8" font-family="Times,serif" font-size="14.00">8</text>
</g>
<!-- 5 -->
<g id="node5" class="node">
<title>5</title>
<ellipse fill="none" stroke="black" cx="446" cy="-221" rx="18" ry="18"/>
<text text-anchor="middle" x="446" y="-217.3" font-family="Times,serif" font-size="14.00">5</text>
</g>
<!-- 4&#45;&gt;5 -->
<g id="edge12" class="edge">
<title>4&#45;&gt;5</title>
<path fill="none" stroke="black" d="M107.41,-191.9C119.18,-219.69 147.03,-272 190,-272 190,-272 190,-272 356,-272 382.48,-272 408.22,-254.8 425.15,-240.38"/>
<polygon fill="black" stroke="black" points="427.6,-242.88 432.72,-233.61 422.93,-237.67 427.6,-242.88"/>
<text text-anchor="middle" x="273" y="-275.8" font-family="Times,serif" font-size="14.00">6</text>
</g>
<!-- 2&#45;&gt;4 -->
<g id="edge10" class="edge">
<title>2&#45;&gt;4</title>
<path fill="none" stroke="black" d="M175.13,-130.86C161.44,-139.01 140.89,-151.24 124.9,-160.77"/>
<polygon fill="black" stroke="black" points="122.9,-157.89 116.1,-166.01 126.48,-163.9 122.9,-157.89"/>
<text text-anchor="middle" x="145.5" y="-156.8" font-family="Times,serif" font-size="14.00">4</text>
</g>
<!-- 0 -->
<g id="node6" class="node">
<title>0</title>
<ellipse fill="none" stroke="black" cx="273" cy="-104" rx="18" ry="18"/>
<text text-anchor="middle" x="273" y="-100.3" font-family="Times,serif" font-size="14.00">0</text>
</g>
<!-- 2&#45;&gt;0 -->
<g id="edge9" class="edge">
<title>2&#45;&gt;0</title>
<path fill="none" stroke="black" d="M203.2,-108.73C209.46,-102.36 217.84,-95.39 227,-92 233.37,-89.64 240.4,-90.13 246.98,-91.84"/>
<polygon fill="black" stroke="black" points="246.19,-95.27 256.78,-95.31 248.52,-88.67 246.19,-95.27"/>
<text text-anchor="middle" x="232" y="-95.8" font-family="Times,serif" font-size="14.00">8</text>
</g>
<!-- 1&#45;&gt;4 -->
<g id="edge4" class="edge">
<title>1&#45;&gt;4</title>
<path fill="none" stroke="black" d="M337.01,-148.65C302.7,-153.92 222.65,-165.71 155,-172 146.32,-172.81 136.84,-173.42 128.28,-173.88"/>
<polygon fill="black" stroke="black" points="127.87,-170.4 118.05,-174.38 128.21,-177.39 127.87,-170.4"/>
<text text-anchor="middle" x="232" y="-166.8" font-family="Times,serif" font-size="14.00">1</text>
</g>
<!-- 1&#45;&gt;5 -->
<g id="edge5" class="edge">
<title>1&#45;&gt;5</title>
<path fill="none" stroke="black" d="M369.52,-157.39C383.98,-169.58 407.1,-189.06 423.95,-203.26"/>
<polygon fill="black" stroke="black" points="421.74,-205.98 431.65,-209.75 426.26,-200.63 421.74,-205.98"/>
<text text-anchor="middle" x="400.5" y="-193.8" font-family="Times,serif" font-size="14.00">21</text>
</g>
<!-- 5&#45;&gt;4 -->
<g id="edge13" class="edge">
<title>5&#45;&gt;4</title>
<path fill="none" stroke="black" d="M427.94,-221C410.02,-221 381.03,-221 356,-221 190,-221 190,-221 190,-221 164.52,-221 139.07,-205.94 121.94,-193.06"/>
<polygon fill="black" stroke="black" points="123.81,-190.07 113.8,-186.61 119.47,-195.56 123.81,-190.07"/>
<text text-anchor="middle" x="273" y="-224.8" font-family="Times,serif" font-size="14.00">8</text>
</g>
<!-- 0&#45;&gt;3 -->
<g id="edge6" class="edge">
<title>0&#45;&gt;3</title>
<path fill="none" stroke="black" d="M257.2,-94.79C251.15,-91.46 243.95,-88.02 237,-86 170.51,-66.65 88.22,-64.71 46.32,-65.2"/>
<polygon fill="black" stroke="black" points="46.03,-61.71 36.09,-65.38 46.15,-68.71 46.03,-61.71"/>
<text text-anchor="middle" x="145.5" y="-73.8" font-family="Times,serif" font-size="14.00">10</text>
</g>
<!-- 0&#45;&gt;2 -->
<g id="edge8" class="edge">
<title>0&#45;&gt;2</title>
<path fill="none" stroke="black" d="M255.33,-107.75C244.82,-110.11 231.01,-113.22 218.97,-115.93"/>
<polygon fill="black" stroke="black" points="217.95,-112.57 208.97,-118.18 219.49,-119.4 217.95,-112.57"/>
<text text-anchor="middle" x="232" y="-117.8" font-family="Times,serif" font-size="14.00">0</text>
</g>
<!-- 0&#45;&gt;1 -->
<g id="edge7" class="edge">
<title>0&#45;&gt;1</title>
<path fill="none" stroke="black" d="M289.42,-112.1C300.82,-118.08 316.57,-126.35 329.66,-133.22"/>
<polygon fill="black" stroke="black" points="328.14,-136.38 338.62,-137.93 331.4,-130.18 328.14,-136.38"/>
<text text-anchor="middle" x="314" y="-130.8" font-family="Times,serif" font-size="14.00">7</text>
</g>
</g>
</svg>
