<?xml version="1.0" encoding="UTF-8" standalone="no"?>
<!DOCTYPE svg PUBLIC "-//W3C//DTD SVG 1.1//EN"
 "http://www.w3.org/Graphics/SVG/1.1/DTD/svg11.dtd">
<!-- Generated by graphviz version 2.43.0 (0)
 -->
<!-- Title: finite_state_machine Pages: 1 -->
<svg width="472pt" height="355pt"
 viewBox="0.00 0.00 472.00 355.08" xmlns="http://www.w3.org/2000/svg" xmlns:xlink="http://www.w3.org/1999/xlink">
<g id="graph0" class="graph" transform="scale(1 1) rotate(0) translate(4 351.08)">
<title>finite_state_machine</title>
<polygon fill="white" stroke="transparent" points="-4,4 -4,-351.08 468,-351.08 468,4 -4,4"/>
<!-- 3 -->
<g id="node1" class="node">
<title>3</title>
<ellipse fill="none" stroke="black" cx="18" cy="-127.08" rx="18" ry="18"/>
<text text-anchor="middle" x="18" y="-123.38" font-family="Times,serif" font-size="14.00">3</text>
</g>
<!-- 4 -->
<g id="node2" class="node">
<title>4</title>
<ellipse fill="none" stroke="black" cx="100" cy="-157.08" rx="18" ry="18"/>
<text text-anchor="middle" x="100" y="-153.38" font-family="Times,serif" font-size="14.00">4</text>
</g>
<!-- 3&#45;&gt;4 -->
<g id="edge1" class="edge">
<title>3&#45;&gt;4</title>
<path fill="none" stroke="black" d="M35.19,-133.16C46.14,-137.26 60.84,-142.77 73.37,-147.47"/>
<polygon fill="black" stroke="black" points="72.24,-150.79 82.83,-151.02 74.7,-144.23 72.24,-150.79"/>
<text text-anchor="middle" x="59" y="-146.88" font-family="Times,serif" font-size="14.00">5</text>
</g>
<!-- 2 -->
<g id="node3" class="node">
<title>2</title>
<ellipse fill="none" stroke="black" cx="191" cy="-137.08" rx="18" ry="18"/>
<text text-anchor="middle" x="191" y="-133.38" font-family="Times,serif" font-size="14.00">2</text>
</g>
<!-- 3&#45;&gt;2 -->
<g id="edge2" class="edge">
<title>3&#45;&gt;2</title>
<path fill="none" stroke="black" d="M35.72,-123.01C48.35,-120.15 66.15,-116.58 82,-115.08 114.49,-112.02 123.79,-113.54 155,-123.08 158.19,-124.06 161.5,-125.2 164.75,-126.41"/>
<polygon fill="black" stroke="black" points="163.58,-129.71 174.17,-130.1 166.14,-123.19 163.58,-129.71"/>
<text text-anchor="middle" x="100" y="-118.88" font-family="Times,serif" font-size="14.00">2</text>
</g>
<!-- 0 -->
<g id="node4" class="node">
<title>0</title>
<ellipse fill="none" stroke="black" cx="273" cy="-142.08" rx="18" ry="18"/>
<text text-anchor="middle" x="273" y="-138.38" font-family="Times,serif" font-size="14.00">0</text>
</g>
<!-- 3&#45;&gt;0 -->
<g id="edge3" class="edge">
<title>3&#45;&gt;0</title>
<path fill="none" stroke="black" d="M20.34,-109.23C22.97,-86.87 30.8,-48.86 54,-27.08 87.57,4.42 109.39,2.19 155,-4.08 192.5,-9.24 211.05,0.47 237,-27.08 262.88,-54.56 242.02,-74.64 255,-110.08 255.94,-112.65 257.05,-115.27 258.25,-117.85"/>
<polygon fill="black" stroke="black" points="255.17,-119.52 262.81,-126.85 261.41,-116.35 255.17,-119.52"/>
<text text-anchor="middle" x="145.5" y="-7.88" font-family="Times,serif" font-size="14.00">10</text>
</g>
<!-- 1 -->
<g id="node5" class="node">
<title>1</title>
<ellipse fill="none" stroke="black" cx="355" cy="-200.08" rx="18" ry="18"/>
<text text-anchor="middle" x="355" y="-196.38" font-family="Times,serif" font-size="14.00">1</text>
</g>
<!-- 3&#45;&gt;1 -->
<g id="edge4" class="edge">
<title>3&#45;&gt;1</title>
<path fill="none" stroke="black" d="M22,-144.92C30.88,-194.79 58.98,-332.08 99,-332.08 99,-332.08 99,-332.08 274,-332.08 322.25,-332.08 342.21,-266.77 349.8,-228.03"/>
<polygon fill="black" stroke="black" points="353.3,-228.35 351.62,-217.89 346.41,-227.11 353.3,-228.35"/>
<text text-anchor="middle" x="191" y="-335.88" font-family="Times,serif" font-size="14.00">1</text>
</g>
<!-- 4&#45;&gt;2 -->
<g id="edge14" class="edge">
<title>4&#45;&gt;2</title>
<path fill="none" stroke="black" d="M118.03,-153.33C128.66,-150.97 142.63,-147.87 155,-145.08 157.7,-144.48 160.52,-143.84 163.33,-143.2"/>
<polygon fill="black" stroke="black" points="164.3,-146.57 173.27,-140.93 162.74,-139.74 164.3,-146.57"/>
<text text-anchor="middle" x="145.5" y="-151.88" font-family="Times,serif" font-size="14.00">8</text>
</g>
<!-- 5 -->
<g id="node6" class="node">
<title>5</title>
<ellipse fill="none" stroke="black" cx="446" cy="-200.08" rx="18" ry="18"/>
<text text-anchor="middle" x="446" y="-196.38" font-family="Times,serif" font-size="14.00">5</text>
</g>
<!-- 4&#45;&gt;5 -->
<g id="edge15" class="edge">
<title>4&#45;&gt;5</title>
<path fill="none" stroke="black" d="M112.2,-143.7C118.58,-136.76 127.07,-128.61 136,-123.08 146.6,-116.52 224.78,-91.08 231,-91.08 231,-91.08 231,-91.08 356,-91.08 398.33,-91.08 424.13,-141.01 436.38,-173.28"/>
<polygon fill="black" stroke="black" points="433.22,-174.82 439.89,-183.05 439.81,-172.46 433.22,-174.82"/>
<text text-anchor="middle" x="273" y="-94.88" font-family="Times,serif" font-size="14.00">6</text>
</g>
<!-- 2&#45;&gt;4 -->
<g id="edge13" class="edge">
<title>2&#45;&gt;4</title>
<path fill="none" stroke="black" d="M173.55,-131.18C162.65,-128.17 148.17,-125.94 136,-130.08 130.78,-131.86 125.73,-134.78 121.16,-138.04"/>
<polygon fill="black" stroke="black" points="118.67,-135.56 113.07,-144.55 123.06,-141.01 118.67,-135.56"/>
<text text-anchor="middle" x="145.5" y="-133.88" font-family="Times,serif" font-size="14.00">4</text>
</g>
<!-- 2&#45;&gt;0 -->
<g id="edge12" class="edge">
<title>2&#45;&gt;0</title>
<path fill="none" stroke="black" d="M209.08,-138.69C214.78,-139.19 221.16,-139.7 227,-140.08 232.76,-140.46 238.93,-140.78 244.8,-141.06"/>
<polygon fill="black" stroke="black" points="244.76,-144.56 254.9,-141.49 245.06,-137.56 244.76,-144.56"/>
<text text-anchor="middle" x="232" y="-143.88" font-family="Times,serif" font-size="14.00">8</text>
</g>
<!-- 0&#45;&gt;3 -->
<g id="edge10" class="edge">
<title>0&#45;&gt;3</title>
<path fill="none" stroke="black" d="M257.76,-132.14C251.56,-128.08 244.1,-123.53 237,-120.08 203.06,-103.6 192.51,-102.2 155,-98.08 109.89,-93.13 97.6,-100.51 54,-113.08 50.79,-114.01 47.47,-115.12 44.22,-116.31"/>
<polygon fill="black" stroke="black" points="42.84,-113.09 34.8,-119.99 45.38,-119.61 42.84,-113.09"/>
<text text-anchor="middle" x="145.5" y="-101.88" font-family="Times,serif" font-size="14.00">0</text>
</g>
<!-- 0&#45;&gt;2 -->
<g id="edge11" class="edge">
<title>0&#45;&gt;2</title>
<path fill="none" stroke="black" d="M257.22,-133.07C251.18,-129.88 243.98,-126.69 237,-125.08 230.48,-123.59 223.48,-124.31 216.99,-125.97"/>
<polygon fill="black" stroke="black" points="215.73,-122.7 207.35,-129.18 217.94,-129.34 215.73,-122.7"/>
<text text-anchor="middle" x="232" y="-128.88" font-family="Times,serif" font-size="14.00">0</text>
</g>
<!-- 0&#45;&gt;1 -->
<g id="edge9" class="edge">
<title>0&#45;&gt;1</title>
<path fill="none" stroke="black" d="M288.89,-151.06C297.8,-156.58 309.25,-163.94 319,-171.08 323.69,-174.52 328.59,-178.39 333.18,-182.15"/>
<polygon fill="black" stroke="black" points="331.08,-184.96 341,-188.69 335.57,-179.59 331.08,-184.96"/>
<text text-anchor="middle" x="314" y="-174.88" font-family="Times,serif" font-size="14.00">0</text>
</g>
<!-- 1&#45;&gt;3 -->
<g id="edge7" class="edge">
<title>1&#45;&gt;3</title>
<path fill="none" stroke="black" d="M337.43,-205.26C331.66,-206.81 325.1,-208.31 319,-209.08 314.59,-209.64 313.44,-209.22 309,-209.08 207.55,-205.99 175.43,-223.75 82,-184.08 64.07,-176.47 47.87,-161.54 36.39,-148.87"/>
<polygon fill="black" stroke="black" points="38.75,-146.25 29.56,-140.97 33.45,-150.83 38.75,-146.25"/>
<text text-anchor="middle" x="191" y="-213.88" font-family="Times,serif" font-size="14.00">10</text>
</g>
<!-- 1&#45;&gt;4 -->
<g id="edge5" class="edge">
<title>1&#45;&gt;4</title>
<path fill="none" stroke="black" d="M336.9,-198.25C299.97,-194.13 210.06,-183.2 136,-167.08 133.11,-166.45 130.1,-165.72 127.11,-164.94"/>
<polygon fill="black" stroke="black" points="127.84,-161.51 117.27,-162.2 125.97,-168.25 127.84,-161.51"/>
<text text-anchor="middle" x="232" y="-188.88" font-family="Times,serif" font-size="14.00">1</text>
</g>
<!-- 1&#45;&gt;0 -->
<g id="edge6" class="edge">
<title>1&#45;&gt;0</title>
<path fill="none" stroke="black" d="M350.25,-182.56C345.79,-166.54 336.62,-143.76 319,-133.08 312.96,-129.42 305.7,-129.38 298.8,-130.88"/>
<polygon fill="black" stroke="black" points="297.59,-127.6 289.11,-133.96 299.7,-134.27 297.59,-127.6"/>
<text text-anchor="middle" x="314" y="-136.88" font-family="Times,serif" font-size="14.00">7</text>
</g>
<!-- 1&#45;&gt;5 -->
<g id="edge8" class="edge">
<title>1&#45;&gt;5</title>
<path fill="none" stroke="black" d="M370.72,-190.54C376.75,-187.17 383.96,-183.79 391,-182.08 399.21,-180.1 401.79,-180.1 410,-182.08 413.74,-182.99 417.53,-184.37 421.16,-185.97"/>
<polygon fill="black" stroke="black" points="419.78,-189.19 430.28,-190.54 422.91,-182.93 419.78,-189.19"/>
<text text-anchor="middle" x="400.5" y="-185.88" font-family="Times,serif" font-size="14.00">4</text>
</g>
<!-- 5&#45;&gt;4 -->
<g id="edge17" class="edge">
<title>5&#45;&gt;4</title>
<path fill="none" stroke="black" d="M437.43,-216.26C424.53,-241.17 395.75,-286.08 356,-286.08 190,-286.08 190,-286.08 190,-286.08 141.13,-286.08 117.02,-222.58 106.99,-184.69"/>
<polygon fill="black" stroke="black" points="110.33,-183.61 104.52,-174.75 103.54,-185.3 110.33,-183.61"/>
<text text-anchor="middle" x="273" y="-289.88" font-family="Times,serif" font-size="14.00">8</text>
</g>
<!-- 5&#45;&gt;1 -->
<g id="edge16" class="edge">
<title>5&#45;&gt;1</title>
<path fill="none" stroke="black" d="M427.89,-200.08C415.35,-200.08 398.05,-200.08 383.56,-200.08"/>
<polygon fill="black" stroke="black" points="383.16,-196.58 373.16,-200.08 383.16,-203.58 383.16,-196.58"/>
<text text-anchor="middle" x="400.5" y="-203.88" font-family="Times,serif" font-size="14.00">17</text>
</g>
</g>
</svg>
