<?xml version="1.0" encoding="UTF-8" standalone="no"?>
<!DOCTYPE svg PUBLIC "-//W3C//DTD SVG 1.1//EN"
 "http://www.w3.org/Graphics/SVG/1.1/DTD/svg11.dtd">
<!-- Generated by graphviz version 2.43.0 (0)
 -->
<!-- Title: finite_state_machine Pages: 1 -->
<svg width="256pt" height="262pt"
 viewBox="0.00 0.00 255.59 262.00" xmlns="http://www.w3.org/2000/svg" xmlns:xlink="http://www.w3.org/1999/xlink">
<g id="graph0" class="graph" transform="scale(1 1) rotate(0) translate(4 258)">
<title>finite_state_machine</title>
<polygon fill="white" stroke="transparent" points="-4,4 -4,-258 251.59,-258 251.59,4 -4,4"/>
<!-- &#45;1 -->
<g id="node1" class="node">
<title>&#45;1</title>
<ellipse fill="none" stroke="black" cx="110.6" cy="-234.5" rx="19.5" ry="19.5"/>
<text text-anchor="middle" x="110.6" y="-230.8" font-family="Times,serif" font-size="14.00">&#45;1</text>
</g>
<!-- &#45;100 -->
<g id="node2" class="node">
<title>&#45;100</title>
<ellipse fill="none" stroke="black" cx="216.39" cy="-170.5" rx="31.4" ry="31.4"/>
<text text-anchor="middle" x="216.39" y="-166.8" font-family="Times,serif" font-size="14.00">&#45;100</text>
</g>
<!-- &#45;1&#45;&gt;&#45;100 -->
<g id="edge1" class="edge">
<title>&#45;1&#45;&gt;&#45;100</title>
<path fill="none" stroke="black" d="M127.82,-224.5C141.8,-215.88 162.48,-203.12 180.23,-192.18"/>
<polygon fill="black" stroke="black" points="182.53,-194.88 189.2,-186.65 178.85,-188.92 182.53,-194.88"/>
<text text-anchor="middle" x="162.19" y="-210.3" font-family="Times,serif" font-size="14.00">3</text>
</g>
<!-- &#45;2 -->
<g id="node3" class="node">
<title>&#45;2</title>
<ellipse fill="none" stroke="black" cx="110.6" cy="-170.5" rx="19.5" ry="19.5"/>
<text text-anchor="middle" x="110.6" y="-166.8" font-family="Times,serif" font-size="14.00">&#45;2</text>
</g>
<!-- &#45;2&#45;&gt;&#45;100 -->
<g id="edge2" class="edge">
<title>&#45;2&#45;&gt;&#45;100</title>
<path fill="none" stroke="black" d="M130.15,-170.5C142.47,-170.5 159.14,-170.5 174.46,-170.5"/>
<polygon fill="black" stroke="black" points="174.79,-174 184.79,-170.5 174.79,-167 174.79,-174"/>
<text text-anchor="middle" x="162.19" y="-174.3" font-family="Times,serif" font-size="14.00">5</text>
</g>
<!-- &#45;3 -->
<g id="node4" class="node">
<title>&#45;3</title>
<ellipse fill="none" stroke="black" cx="110.6" cy="-19.5" rx="19.5" ry="19.5"/>
<text text-anchor="middle" x="110.6" y="-15.8" font-family="Times,serif" font-size="14.00">&#45;3</text>
</g>
<!-- &#45;3&#45;&gt;&#45;100 -->
<g id="edge3" class="edge">
<title>&#45;3&#45;&gt;&#45;100</title>
<path fill="none" stroke="black" d="M124.08,-33.65C128.96,-39.37 134.5,-46.12 139.19,-52.5 159.07,-79.48 179.57,-111.5 194.29,-135.38"/>
<polygon fill="black" stroke="black" points="191.43,-137.4 199.64,-144.1 197.4,-133.74 191.43,-137.4"/>
<text text-anchor="middle" x="162.19" y="-95.3" font-family="Times,serif" font-size="14.00">1</text>
</g>
<!-- 2 -->
<g id="node5" class="node">
<title>2</title>
<ellipse fill="none" stroke="black" cx="18" cy="-103.5" rx="18" ry="18"/>
<text text-anchor="middle" x="18" y="-99.8" font-family="Times,serif" font-size="14.00">2</text>
</g>
<!-- 2&#45;&gt;&#45;2 -->
<g id="edge5" class="edge">
<title>2&#45;&gt;&#45;2</title>
<path fill="none" stroke="black" d="M34.49,-111.41C43.41,-116.21 54.66,-122.71 64,-129.5 72.48,-135.65 81.17,-143.14 88.67,-150.01"/>
<polygon fill="black" stroke="black" points="86.58,-152.85 96.26,-157.15 91.37,-147.75 86.58,-152.85"/>
<text text-anchor="middle" x="59" y="-133.3" font-family="Times,serif" font-size="14.00">1</text>
</g>
<!-- 100 -->
<g id="node6" class="node">
<title>100</title>
<ellipse fill="none" stroke="black" cx="110.6" cy="-90.5" rx="28.7" ry="28.7"/>
<text text-anchor="middle" x="110.6" y="-86.8" font-family="Times,serif" font-size="14.00">100</text>
</g>
<!-- 2&#45;&gt;100 -->
<g id="edge4" class="edge">
<title>2&#45;&gt;100</title>
<path fill="none" stroke="black" d="M35.1,-96.8C40.95,-94.69 47.67,-92.61 54,-91.5 59.65,-90.51 65.66,-89.92 71.58,-89.6"/>
<polygon fill="black" stroke="black" points="72.11,-93.09 82,-89.3 71.91,-86.09 72.11,-93.09"/>
<text text-anchor="middle" x="59" y="-95.3" font-family="Times,serif" font-size="14.00">1</text>
</g>
<!-- 1 -->
<g id="node7" class="node">
<title>1</title>
<ellipse fill="none" stroke="black" cx="18" cy="-38.5" rx="18" ry="18"/>
<text text-anchor="middle" x="18" y="-34.8" font-family="Times,serif" font-size="14.00">1</text>
</g>
<!-- 1&#45;&gt;&#45;3 -->
<g id="edge7" class="edge">
<title>1&#45;&gt;&#45;3</title>
<path fill="none" stroke="black" d="M32.36,-27.07C38.52,-22.53 46.2,-17.83 54,-15.5 62.73,-12.89 72.56,-12.74 81.5,-13.59"/>
<polygon fill="black" stroke="black" points="81.08,-17.07 91.46,-14.97 82.04,-10.13 81.08,-17.07"/>
<text text-anchor="middle" x="59" y="-19.3" font-family="Times,serif" font-size="14.00">1</text>
</g>
<!-- 1&#45;&gt;100 -->
<g id="edge6" class="edge">
<title>1&#45;&gt;100</title>
<path fill="none" stroke="black" d="M33.96,-47.09C45.53,-53.73 61.99,-63.17 76.6,-71.56"/>
<polygon fill="black" stroke="black" points="74.98,-74.67 85.4,-76.61 78.47,-68.59 74.98,-74.67"/>
<text text-anchor="middle" x="59" y="-67.3" font-family="Times,serif" font-size="14.00">1</text>
</g>
<!-- 0 -->
<g id="node8" class="node">
<title>0</title>
<ellipse fill="none" stroke="black" cx="18" cy="-204.5" rx="18" ry="18"/>
<text text-anchor="middle" x="18" y="-200.8" font-family="Times,serif" font-size="14.00">0</text>
</g>
<!-- 0&#45;&gt;&#45;1 -->
<g id="edge10" class="edge">
<title>0&#45;&gt;&#45;1</title>
<path fill="none" stroke="black" d="M34.43,-212.29C40.44,-215.12 47.44,-218.2 54,-220.5 62.78,-223.58 72.55,-226.28 81.43,-228.46"/>
<polygon fill="black" stroke="black" points="80.79,-231.9 91.32,-230.78 82.39,-225.09 80.79,-231.9"/>
<text text-anchor="middle" x="59" y="-227.3" font-family="Times,serif" font-size="14.00">1</text>
</g>
<!-- 0&#45;&gt;&#45;2 -->
<g id="edge9" class="edge">
<title>0&#45;&gt;&#45;2</title>
<path fill="none" stroke="black" d="M35.2,-198.42C48.31,-193.5 67.06,-186.46 82.45,-180.69"/>
<polygon fill="black" stroke="black" points="83.86,-183.9 91.99,-177.1 81.4,-177.34 83.86,-183.9"/>
<text text-anchor="middle" x="59" y="-195.3" font-family="Times,serif" font-size="14.00">1</text>
</g>
<!-- 0&#45;&gt;100 -->
<g id="edge8" class="edge">
<title>0&#45;&gt;100</title>
<path fill="none" stroke="black" d="M30.11,-190.52C43.91,-173.15 67.84,-143.04 85.85,-120.38"/>
<polygon fill="black" stroke="black" points="88.7,-122.42 92.18,-112.41 83.22,-118.06 88.7,-122.42"/>
<text text-anchor="middle" x="59" y="-162.3" font-family="Times,serif" font-size="14.00">1</text>
</g>
</g>
</svg>
