<?xml version="1.0" encoding="UTF-8" standalone="no"?>
<!DOCTYPE svg PUBLIC "-//W3C//DTD SVG 1.1//EN"
 "http://www.w3.org/Graphics/SVG/1.1/DTD/svg11.dtd">
<!-- Generated by graphviz version 2.43.0 (0)
 -->
<!-- Title: finite_state_machine Pages: 1 -->
<svg width="480pt" height="360pt"
 viewBox="0.00 0.00 480.18 360.00" xmlns="http://www.w3.org/2000/svg" xmlns:xlink="http://www.w3.org/1999/xlink">
<g id="graph0" class="graph" transform="scale(1.31 1.31) rotate(0) translate(4 468.29)">
<title>finite_state_machine</title>
<polygon fill="white" stroke="transparent" points="-4,4 -4,-468.29 625.96,-468.29 625.96,4 -4,4"/>
<!-- &#45;1 -->
<g id="node1" class="node">
<title>&#45;1</title>
<ellipse fill="none" stroke="black" cx="204.19" cy="-396.5" rx="19.5" ry="19.5"/>
<text text-anchor="middle" x="204.19" y="-392.8" font-family="Times,serif" font-size="14.00">&#45;1</text>
</g>
<!-- &#45;4611686018427387904 -->
<g id="node2" class="node">
<title>&#45;4611686018427387904</title>
<ellipse fill="none" stroke="black" cx="497.17" cy="-339.5" rx="124.58" ry="124.58"/>
<text text-anchor="middle" x="497.17" y="-335.8" font-family="Times,serif" font-size="14.00">&#45;4611686018427387904</text>
</g>
<!-- &#45;1&#45;&gt;&#45;4611686018427387904 -->
<g id="edge1" class="edge">
<title>&#45;1&#45;&gt;&#45;4611686018427387904</title>
<path fill="none" stroke="black" d="M223.39,-392.93C251.91,-387.35 309.57,-376.05 364.57,-365.28"/>
<polygon fill="black" stroke="black" points="365.3,-368.7 374.44,-363.34 363.95,-361.83 365.3,-368.7"/>
<text text-anchor="middle" x="349.38" y="-372.3" font-family="Times,serif" font-size="14.00">3</text>
</g>
<!-- &#45;2 -->
<g id="node3" class="node">
<title>&#45;2</title>
<ellipse fill="none" stroke="black" cx="204.19" cy="-339.5" rx="19.5" ry="19.5"/>
<text text-anchor="middle" x="204.19" y="-335.8" font-family="Times,serif" font-size="14.00">&#45;2</text>
</g>
<!-- &#45;2&#45;&gt;&#45;4611686018427387904 -->
<g id="edge2" class="edge">
<title>&#45;2&#45;&gt;&#45;4611686018427387904</title>
<path fill="none" stroke="black" d="M223.83,-339.5C252.06,-339.5 308.06,-339.5 361.99,-339.5"/>
<polygon fill="black" stroke="black" points="362.03,-343 372.03,-339.5 362.03,-336 362.03,-343"/>
<text text-anchor="middle" x="349.38" y="-343.3" font-family="Times,serif" font-size="14.00">5</text>
</g>
<!-- &#45;3 -->
<g id="node4" class="node">
<title>&#45;3</title>
<ellipse fill="none" stroke="black" cx="204.19" cy="-19.5" rx="19.5" ry="19.5"/>
<text text-anchor="middle" x="204.19" y="-15.8" font-family="Times,serif" font-size="14.00">&#45;3</text>
</g>
<!-- &#45;3&#45;&gt;&#45;4611686018427387904 -->
<g id="edge3" class="edge">
<title>&#45;3&#45;&gt;&#45;4611686018427387904</title>
<path fill="none" stroke="black" d="M223.91,-19.56C249.47,-20.55 295.64,-25.67 326.38,-48.5 381.76,-89.63 422.15,-154.62 449.61,-212.77"/>
<polygon fill="black" stroke="black" points="446.52,-214.43 453.91,-222.03 452.88,-211.49 446.52,-214.43"/>
<text text-anchor="middle" x="349.38" y="-76.3" font-family="Times,serif" font-size="14.00">1</text>
</g>
<!-- 2 -->
<g id="node5" class="node">
<title>2</title>
<ellipse fill="none" stroke="black" cx="18" cy="-192.5" rx="18" ry="18"/>
<text text-anchor="middle" x="18" y="-188.8" font-family="Times,serif" font-size="14.00">2</text>
</g>
<!-- 2&#45;&gt;&#45;2 -->
<g id="edge5" class="edge">
<title>2&#45;&gt;&#45;2</title>
<path fill="none" stroke="black" d="M30.75,-205.69C40.76,-217.51 54.93,-235.67 64,-253.5 76.05,-277.18 62.56,-292.39 82,-310.5 107.02,-333.8 147.33,-339.38 174.52,-340.25"/>
<polygon fill="black" stroke="black" points="174.54,-343.75 184.58,-340.37 174.63,-336.75 174.54,-343.75"/>
<text text-anchor="middle" x="59" y="-257.3" font-family="Times,serif" font-size="14.00">1</text>
</g>
<!-- 4611686018427387903 -->
<g id="node6" class="node">
<title>4611686018427387903</title>
<ellipse fill="none" stroke="black" cx="204.19" cy="-179.5" rx="122.38" ry="122.38"/>
<text text-anchor="middle" x="204.19" y="-175.8" font-family="Times,serif" font-size="14.00">4611686018427387903</text>
</g>
<!-- 2&#45;&gt;4611686018427387903 -->
<g id="edge4" class="edge">
<title>2&#45;&gt;4611686018427387903</title>
<path fill="none" stroke="black" d="M36,-191.3C45.4,-190.63 58.05,-189.74 72.19,-188.74"/>
<polygon fill="black" stroke="black" points="72.47,-192.23 82.19,-188.04 71.97,-185.25 72.47,-192.23"/>
<text text-anchor="middle" x="59" y="-194.3" font-family="Times,serif" font-size="14.00">1</text>
</g>
<!-- 1 -->
<g id="node7" class="node">
<title>1</title>
<ellipse fill="none" stroke="black" cx="18" cy="-127.5" rx="18" ry="18"/>
<text text-anchor="middle" x="18" y="-123.8" font-family="Times,serif" font-size="14.00">1</text>
</g>
<!-- 1&#45;&gt;&#45;3 -->
<g id="edge7" class="edge">
<title>1&#45;&gt;&#45;3</title>
<path fill="none" stroke="black" d="M27.21,-111.84C37.54,-93.74 56.98,-64.4 82,-48.5 110.12,-30.63 148.26,-23.76 174.19,-21.13"/>
<polygon fill="black" stroke="black" points="174.83,-24.59 184.5,-20.24 174.23,-17.61 174.83,-24.59"/>
<text text-anchor="middle" x="59" y="-76.3" font-family="Times,serif" font-size="14.00">1</text>
</g>
<!-- 1&#45;&gt;4611686018427387903 -->
<g id="edge6" class="edge">
<title>1&#45;&gt;4611686018427387903</title>
<path fill="none" stroke="black" d="M35.67,-132.2C46.11,-135.15 60.62,-139.25 76.77,-143.81"/>
<polygon fill="black" stroke="black" points="75.88,-147.19 86.45,-146.54 77.78,-140.46 75.88,-147.19"/>
<text text-anchor="middle" x="59" y="-144.3" font-family="Times,serif" font-size="14.00">1</text>
</g>
<!-- 0 -->
<g id="node8" class="node">
<title>0</title>
<ellipse fill="none" stroke="black" cx="18" cy="-339.5" rx="18" ry="18"/>
<text text-anchor="middle" x="18" y="-335.8" font-family="Times,serif" font-size="14.00">0</text>
</g>
<!-- 0&#45;&gt;&#45;1 -->
<g id="edge10" class="edge">
<title>0&#45;&gt;&#45;1</title>
<path fill="none" stroke="black" d="M34.03,-348.45C40.1,-351.86 47.26,-355.62 54,-358.5 94.23,-375.7 144.01,-386.44 174.68,-391.95"/>
<polygon fill="black" stroke="black" points="174.23,-395.43 184.68,-393.68 175.43,-388.53 174.23,-395.43"/>
<text text-anchor="middle" x="59" y="-366.3" font-family="Times,serif" font-size="14.00">1</text>
</g>
<!-- 0&#45;&gt;&#45;2 -->
<g id="edge9" class="edge">
<title>0&#45;&gt;&#45;2</title>
<path fill="none" stroke="black" d="M36.33,-339.5C68.09,-339.5 135.91,-339.5 174.6,-339.5"/>
<polygon fill="black" stroke="black" points="174.68,-343 184.68,-339.5 174.68,-336 174.68,-343"/>
<text text-anchor="middle" x="59" y="-343.3" font-family="Times,serif" font-size="14.00">1</text>
</g>
<!-- 0&#45;&gt;4611686018427387903 -->
<g id="edge8" class="edge">
<title>0&#45;&gt;4611686018427387903</title>
<path fill="none" stroke="black" d="M32.25,-327.99C47.84,-314.44 75.24,-290.64 103.59,-266.02"/>
<polygon fill="black" stroke="black" points="105.95,-268.6 111.2,-259.4 101.36,-263.32 105.95,-268.6"/>
<text text-anchor="middle" x="59" y="-313.3" font-family="Times,serif" font-size="14.00">1</text>
</g>
</g>
</svg>
