<?xml version="1.0" encoding="UTF-8" standalone="no"?>
<!DOCTYPE svg PUBLIC "-//W3C//DTD SVG 1.1//EN"
 "http://www.w3.org/Graphics/SVG/1.1/DTD/svg11.dtd">
<!-- Generated by graphviz version 2.43.0 (0)
 -->
<!-- Title: finite_state_machine Pages: 1 -->
<svg width="576pt" height="249pt"
 viewBox="0.00 0.00 576.00 249.13" xmlns="http://www.w3.org/2000/svg" xmlns:xlink="http://www.w3.org/1999/xlink">
<g id="graph0" class="graph" transform="scale(1.02 1.02) rotate(0) translate(4 251)">
<title>finite_state_machine</title>
<polygon fill="white" stroke="transparent" points="-4,4 -4,-251 585.58,-251 585.58,4 -4,4"/>
<!-- 0 -->
<g id="node1" class="node">
<title>0</title>
<ellipse fill="none" stroke="black" cx="18" cy="-141" rx="18" ry="18"/>
<text text-anchor="middle" x="18" y="-137.3" font-family="Times,serif" font-size="14.00">0</text>
</g>
<!-- 100 -->
<g id="node2" class="node">
<title>100</title>
<ellipse fill="none" stroke="black" cx="110.6" cy="-94" rx="28.7" ry="28.7"/>
<text text-anchor="middle" x="110.6" y="-90.3" font-family="Times,serif" font-size="14.00">100</text>
</g>
<!-- 0&#45;&gt;100 -->
<g id="edge1" class="edge">
<title>0&#45;&gt;100</title>
<path fill="none" stroke="black" d="M25.18,-124.33C30.69,-112.11 40.07,-96.41 54,-89 59.78,-85.92 66.39,-84.82 72.98,-84.86"/>
<polygon fill="black" stroke="black" points="72.93,-88.37 83.2,-85.75 73.54,-81.4 72.93,-88.37"/>
<text text-anchor="middle" x="59" y="-92.8" font-family="Times,serif" font-size="14.00">1</text>
</g>
<!-- &#45;1 -->
<g id="node3" class="node">
<title>&#45;1</title>
<ellipse fill="none" stroke="black" cx="480.08" cy="-118" rx="19.5" ry="19.5"/>
<text text-anchor="middle" x="480.08" y="-114.3" font-family="Times,serif" font-size="14.00">&#45;1</text>
</g>
<!-- 0&#45;&gt;&#45;1 -->
<g id="edge2" class="edge">
<title>0&#45;&gt;&#45;1</title>
<path fill="none" stroke="black" d="M26.11,-157.27C38.78,-183.44 67.91,-232 109.6,-232 109.6,-232 109.6,-232 384.39,-232 428.92,-232 456.53,-179.88 469.73,-146.12"/>
<polygon fill="black" stroke="black" points="473.18,-146.91 473.37,-136.32 466.61,-144.47 473.18,-146.91"/>
<text text-anchor="middle" x="244.19" y="-235.8" font-family="Times,serif" font-size="14.00">0</text>
</g>
<!-- 100&#45;&gt;0 -->
<g id="edge8" class="edge">
<title>100&#45;&gt;0</title>
<path fill="none" stroke="black" d="M84.91,-106.81C72.05,-113.48 56.38,-121.61 43.54,-128.27"/>
<polygon fill="black" stroke="black" points="41.63,-125.32 34.37,-133.03 44.86,-131.53 41.63,-125.32"/>
<text text-anchor="middle" x="59" y="-125.8" font-family="Times,serif" font-size="14.00">0</text>
</g>
<!-- 1 -->
<g id="node4" class="node">
<title>1</title>
<ellipse fill="none" stroke="black" cx="563.58" cy="-118" rx="18" ry="18"/>
<text text-anchor="middle" x="563.58" y="-114.3" font-family="Times,serif" font-size="14.00">1</text>
</g>
<!-- 100&#45;&gt;1 -->
<g id="edge9" class="edge">
<title>100&#45;&gt;1</title>
<path fill="none" stroke="black" d="M121.92,-120.27C135.49,-149.9 162.37,-194 202.19,-194 202.19,-194 202.19,-194 481.08,-194 511.86,-194 535.86,-164.65 549.62,-142.43"/>
<polygon fill="black" stroke="black" points="552.67,-144.14 554.71,-133.75 546.63,-140.6 552.67,-144.14"/>
<text text-anchor="middle" x="329.19" y="-197.8" font-family="Times,serif" font-size="14.00">0</text>
</g>
<!-- 2 -->
<g id="node6" class="node">
<title>2</title>
<ellipse fill="none" stroke="black" cx="203.19" cy="-88" rx="18" ry="18"/>
<text text-anchor="middle" x="203.19" y="-84.3" font-family="Times,serif" font-size="14.00">2</text>
</g>
<!-- 100&#45;&gt;2 -->
<g id="edge10" class="edge">
<title>100&#45;&gt;2</title>
<path fill="none" stroke="black" d="M139.32,-92.68C148.23,-92.21 158.13,-91.63 167.19,-91 169.75,-90.82 172.41,-90.62 175.07,-90.41"/>
<polygon fill="black" stroke="black" points="175.44,-93.89 185.11,-89.57 174.86,-86.92 175.44,-93.89"/>
<text text-anchor="middle" x="162.19" y="-95.8" font-family="Times,serif" font-size="14.00">0</text>
</g>
<!-- &#45;1&#45;&gt;0 -->
<g id="edge5" class="edge">
<title>&#45;1&#45;&gt;0</title>
<path fill="none" stroke="black" d="M463.43,-128.59C445.26,-139.83 413.97,-156 384.39,-156 109.6,-156 109.6,-156 109.6,-156 87.74,-156 63.31,-151.7 45.33,-147.7"/>
<polygon fill="black" stroke="black" points="46.1,-144.29 35.56,-145.42 44.5,-151.1 46.1,-144.29"/>
<text text-anchor="middle" x="244.19" y="-159.8" font-family="Times,serif" font-size="14.00">1</text>
</g>
<!-- &#45;1&#45;&gt;1 -->
<g id="edge6" class="edge">
<title>&#45;1&#45;&gt;1</title>
<path fill="none" stroke="black" d="M499.99,-118C510.5,-118 523.77,-118 535.38,-118"/>
<polygon fill="black" stroke="black" points="535.45,-121.5 545.45,-118 535.45,-114.5 535.45,-121.5"/>
<text text-anchor="middle" x="522.58" y="-121.8" font-family="Times,serif" font-size="14.00">1</text>
</g>
<!-- &#45;100 -->
<g id="node5" class="node">
<title>&#45;100</title>
<ellipse fill="none" stroke="black" cx="383.39" cy="-59" rx="31.4" ry="31.4"/>
<text text-anchor="middle" x="383.39" y="-55.3" font-family="Times,serif" font-size="14.00">&#45;100</text>
</g>
<!-- &#45;1&#45;&gt;&#45;100 -->
<g id="edge7" class="edge">
<title>&#45;1&#45;&gt;&#45;100</title>
<path fill="none" stroke="black" d="M474.58,-99.22C469.64,-83.26 460.01,-61.35 442.59,-51 436.64,-47.47 429.75,-46.37 422.84,-46.66"/>
<polygon fill="black" stroke="black" points="422.28,-43.21 412.82,-47.97 423.19,-50.15 422.28,-43.21"/>
<text text-anchor="middle" x="437.59" y="-54.8" font-family="Times,serif" font-size="14.00">0</text>
</g>
<!-- 1&#45;&gt;100 -->
<g id="edge3" class="edge">
<title>1&#45;&gt;100</title>
<path fill="none" stroke="black" d="M559,-100.33C551.17,-67.42 529.26,0 481.08,0 202.19,0 202.19,0 202.19,0 168.23,0 142.99,-32.2 127.9,-58.91"/>
<polygon fill="black" stroke="black" points="124.63,-57.6 122.98,-68.07 130.79,-60.91 124.63,-57.6"/>
<text text-anchor="middle" x="329.19" y="-3.8" font-family="Times,serif" font-size="14.00">1</text>
</g>
<!-- 1&#45;&gt;&#45;1 -->
<g id="edge4" class="edge">
<title>1&#45;&gt;&#45;1</title>
<path fill="none" stroke="black" d="M547.87,-108.46C541.83,-105.08 534.62,-101.7 527.58,-100 520.18,-98.21 512.37,-99.77 505.31,-102.6"/>
<polygon fill="black" stroke="black" points="503.69,-99.5 496.26,-107.04 506.78,-105.78 503.69,-99.5"/>
<text text-anchor="middle" x="522.58" y="-103.8" font-family="Times,serif" font-size="14.00">0</text>
</g>
<!-- &#45;100&#45;&gt;&#45;1 -->
<g id="edge16" class="edge">
<title>&#45;100&#45;&gt;&#45;1</title>
<path fill="none" stroke="black" d="M411.95,-71.82C421.85,-76.79 432.94,-82.77 442.59,-89 447.34,-92.07 452.23,-95.64 456.82,-99.19"/>
<polygon fill="black" stroke="black" points="454.66,-101.95 464.66,-105.47 459.04,-96.48 454.66,-101.95"/>
<text text-anchor="middle" x="437.59" y="-92.8" font-family="Times,serif" font-size="14.00">2</text>
</g>
<!-- &#45;2 -->
<g id="node7" class="node">
<title>&#45;2</title>
<ellipse fill="none" stroke="black" cx="286.69" cy="-61" rx="19.5" ry="19.5"/>
<text text-anchor="middle" x="286.69" y="-57.3" font-family="Times,serif" font-size="14.00">&#45;2</text>
</g>
<!-- &#45;100&#45;&gt;&#45;2 -->
<g id="edge17" class="edge">
<title>&#45;100&#45;&gt;&#45;2</title>
<path fill="none" stroke="black" d="M352.16,-59.64C340.77,-59.88 327.86,-60.15 316.59,-60.39"/>
<polygon fill="black" stroke="black" points="316.33,-56.89 306.4,-60.6 316.47,-63.89 316.33,-56.89"/>
<text text-anchor="middle" x="329.19" y="-64.8" font-family="Times,serif" font-size="14.00">1</text>
</g>
<!-- 2&#45;&gt;100 -->
<g id="edge12" class="edge">
<title>2&#45;&gt;100</title>
<path fill="none" stroke="black" d="M187.86,-78.44C179.14,-73.76 167.7,-69.6 157.19,-72 153.26,-72.9 149.27,-74.19 145.37,-75.69"/>
<polygon fill="black" stroke="black" points="143.72,-72.59 135.94,-79.78 146.51,-79.01 143.72,-72.59"/>
<text text-anchor="middle" x="162.19" y="-75.8" font-family="Times,serif" font-size="14.00">1</text>
</g>
<!-- 2&#45;&gt;&#45;1 -->
<g id="edge11" class="edge">
<title>2&#45;&gt;&#45;1</title>
<path fill="none" stroke="black" d="M220.84,-92.28C226.62,-93.64 233.16,-95.04 239.19,-96 314.74,-108.04 404.8,-114.11 450.07,-116.59"/>
<polygon fill="black" stroke="black" points="450.14,-120.1 460.32,-117.13 450.51,-113.11 450.14,-120.1"/>
<text text-anchor="middle" x="329.19" y="-111.8" font-family="Times,serif" font-size="14.00">1</text>
</g>
<!-- 2&#45;&gt;&#45;2 -->
<g id="edge13" class="edge">
<title>2&#45;&gt;&#45;2</title>
<path fill="none" stroke="black" d="M213.61,-73.24C219.78,-65.02 228.64,-55.55 239.19,-51 245.37,-48.34 252.31,-48.39 258.92,-49.68"/>
<polygon fill="black" stroke="black" points="258.28,-53.14 268.86,-52.54 260.21,-46.41 258.28,-53.14"/>
<text text-anchor="middle" x="244.19" y="-54.8" font-family="Times,serif" font-size="14.00">0</text>
</g>
<!-- &#45;2&#45;&gt;&#45;100 -->
<g id="edge15" class="edge">
<title>&#45;2&#45;&gt;&#45;100</title>
<path fill="none" stroke="black" d="M303.32,-50.19C309.52,-46.51 316.91,-42.86 324.19,-41 331.14,-39.22 338.5,-39.65 345.56,-41.24"/>
<polygon fill="black" stroke="black" points="345.01,-44.73 355.6,-44.28 347.04,-38.03 345.01,-44.73"/>
<text text-anchor="middle" x="329.19" y="-44.8" font-family="Times,serif" font-size="14.00">0</text>
</g>
<!-- &#45;2&#45;&gt;2 -->
<g id="edge14" class="edge">
<title>&#45;2&#45;&gt;2</title>
<path fill="none" stroke="black" d="M267.81,-66.92C256.84,-70.56 242.59,-75.28 230.37,-79.33"/>
<polygon fill="black" stroke="black" points="229.08,-76.07 220.69,-82.54 231.28,-82.71 229.08,-76.07"/>
<text text-anchor="middle" x="244.19" y="-80.8" font-family="Times,serif" font-size="14.00">1</text>
</g>
</g>
</svg>
