<?xml version="1.0" encoding="UTF-8" standalone="no"?>
<!DOCTYPE svg PUBLIC "-//W3C//DTD SVG 1.1//EN"
 "http://www.w3.org/Graphics/SVG/1.1/DTD/svg11.dtd">
<!-- Generated by graphviz version 2.43.0 (0)
 -->
<!-- Title: finite_state_machine Pages: 1 -->
<svg width="129pt" height="178pt"
 viewBox="0.00 0.00 129.00 178.00" xmlns="http://www.w3.org/2000/svg" xmlns:xlink="http://www.w3.org/1999/xlink">
<g id="graph0" class="graph" transform="scale(1 1) rotate(0) translate(4 174)">
<title>finite_state_machine</title>
<polygon fill="white" stroke="transparent" points="-4,4 -4,-174 125,-174 125,4 -4,4"/>
<!-- 2 -->
<g id="node1" class="node">
<title>2</title>
<ellipse fill="none" stroke="black" cx="18" cy="-95.5" rx="18" ry="18"/>
<text text-anchor="middle" x="18" y="-91.8" font-family="Times,serif" font-size="14.00">2</text>
</g>
<!-- &#45;2 -->
<g id="node2" class="node">
<title>&#45;2</title>
<ellipse fill="none" stroke="black" cx="101.5" cy="-85.5" rx="19.5" ry="19.5"/>
<text text-anchor="middle" x="101.5" y="-81.8" font-family="Times,serif" font-size="14.00">&#45;2</text>
</g>
<!-- 2&#45;&gt;&#45;2 -->
<g id="edge1" class="edge">
<title>2&#45;&gt;&#45;2</title>
<path fill="none" stroke="black" d="M35.89,-93.43C46.27,-92.15 59.85,-90.49 71.88,-89.01"/>
<polygon fill="black" stroke="black" points="72.43,-92.47 81.93,-87.78 71.58,-85.52 72.43,-92.47"/>
<text text-anchor="middle" x="59" y="-95.3" font-family="Times,serif" font-size="14.00">1</text>
</g>
<!-- 1 -->
<g id="node3" class="node">
<title>1</title>
<ellipse fill="none" stroke="black" cx="18" cy="-150.5" rx="18" ry="18"/>
<text text-anchor="middle" x="18" y="-146.8" font-family="Times,serif" font-size="14.00">1</text>
</g>
<!-- &#45;3 -->
<g id="node4" class="node">
<title>&#45;3</title>
<ellipse fill="none" stroke="black" cx="101.5" cy="-150.5" rx="19.5" ry="19.5"/>
<text text-anchor="middle" x="101.5" y="-146.8" font-family="Times,serif" font-size="14.00">&#45;3</text>
</g>
<!-- 1&#45;&gt;&#45;3 -->
<g id="edge2" class="edge">
<title>1&#45;&gt;&#45;3</title>
<path fill="none" stroke="black" d="M36.28,-150.5C46.51,-150.5 59.74,-150.5 71.53,-150.5"/>
<polygon fill="black" stroke="black" points="71.82,-154 81.82,-150.5 71.82,-147 71.82,-154"/>
<text text-anchor="middle" x="59" y="-154.3" font-family="Times,serif" font-size="14.00">1</text>
</g>
<!-- 0 -->
<g id="node5" class="node">
<title>0</title>
<ellipse fill="none" stroke="black" cx="18" cy="-30.5" rx="18" ry="18"/>
<text text-anchor="middle" x="18" y="-26.8" font-family="Times,serif" font-size="14.00">0</text>
</g>
<!-- 0&#45;&gt;&#45;2 -->
<g id="edge3" class="edge">
<title>0&#45;&gt;&#45;2</title>
<path fill="none" stroke="black" d="M33.57,-40.33C45.44,-48.34 62.44,-59.82 76.34,-69.2"/>
<polygon fill="black" stroke="black" points="74.7,-72.31 84.94,-75 78.61,-66.51 74.7,-72.31"/>
<text text-anchor="middle" x="59" y="-64.3" font-family="Times,serif" font-size="14.00">1</text>
</g>
<!-- &#45;1 -->
<g id="node6" class="node">
<title>&#45;1</title>
<ellipse fill="none" stroke="black" cx="101.5" cy="-19.5" rx="19.5" ry="19.5"/>
<text text-anchor="middle" x="101.5" y="-15.8" font-family="Times,serif" font-size="14.00">&#45;1</text>
</g>
<!-- 0&#45;&gt;&#45;1 -->
<g id="edge4" class="edge">
<title>0&#45;&gt;&#45;1</title>
<path fill="none" stroke="black" d="M35.19,-24.94C41.04,-23.17 47.75,-21.44 54,-20.5 59.69,-19.64 65.81,-19.18 71.69,-18.97"/>
<polygon fill="black" stroke="black" points="71.91,-22.46 81.85,-18.81 71.8,-15.46 71.91,-22.46"/>
<text text-anchor="middle" x="59" y="-24.3" font-family="Times,serif" font-size="14.00">1</text>
</g>
</g>
</svg>
