<?xml version="1.0" encoding="UTF-8" standalone="no"?>
<!DOCTYPE svg PUBLIC "-//W3C//DTD SVG 1.1//EN"
 "http://www.w3.org/Graphics/SVG/1.1/DTD/svg11.dtd">
<!-- Generated by graphviz version 2.43.0 (0)
 -->
<!-- Title: finite_state_machine Pages: 1 -->
<svg width="576pt" height="345pt"
 viewBox="0.00 0.00 576.00 344.87" xmlns="http://www.w3.org/2000/svg" xmlns:xlink="http://www.w3.org/1999/xlink">
<g id="graph0" class="graph" transform="scale(1.02 1.02) rotate(0) translate(4 349)">
<title>finite_state_machine</title>
<polygon fill="white" stroke="transparent" points="-4,4 -4,-349 585.58,-349 585.58,4 -4,4"/>
<!-- 0 -->
<g id="node1" class="node">
<title>0</title>
<ellipse fill="none" stroke="black" cx="18" cy="-189" rx="18" ry="18"/>
<text text-anchor="middle" x="18" y="-185.3" font-family="Times,serif" font-size="14.00">0</text>
</g>
<!-- &#45;2 -->
<g id="node2" class="node">
<title>&#45;2</title>
<ellipse fill="none" stroke="black" cx="101.5" cy="-189" rx="19.5" ry="19.5"/>
<text text-anchor="middle" x="101.5" y="-185.3" font-family="Times,serif" font-size="14.00">&#45;2</text>
</g>
<!-- 0&#45;&gt;&#45;2 -->
<g id="edge1" class="edge">
<title>0&#45;&gt;&#45;2</title>
<path fill="none" stroke="black" d="M36.28,-189C46.51,-189 59.74,-189 71.53,-189"/>
<polygon fill="black" stroke="black" points="71.82,-192.5 81.82,-189 71.82,-185.5 71.82,-192.5"/>
<text text-anchor="middle" x="59" y="-192.8" font-family="Times,serif" font-size="14.00">1</text>
</g>
<!-- 100 -->
<g id="node3" class="node">
<title>100</title>
<ellipse fill="none" stroke="black" cx="470.99" cy="-133" rx="28.7" ry="28.7"/>
<text text-anchor="middle" x="470.99" y="-129.3" font-family="Times,serif" font-size="14.00">100</text>
</g>
<!-- 0&#45;&gt;100 -->
<g id="edge2" class="edge">
<title>0&#45;&gt;100</title>
<path fill="none" stroke="black" d="M20.38,-171.09C24.53,-131.09 40.62,-38 100.5,-38 100.5,-38 100.5,-38 379.39,-38 413.79,-38 439.12,-71.02 454.11,-98.13"/>
<polygon fill="black" stroke="black" points="451.05,-99.82 458.8,-107.04 457.24,-96.56 451.05,-99.82"/>
<text text-anchor="middle" x="252.39" y="-41.8" font-family="Times,serif" font-size="14.00">1</text>
</g>
<!-- &#45;1 -->
<g id="node4" class="node">
<title>&#45;1</title>
<ellipse fill="none" stroke="black" cx="294.89" cy="-297" rx="19.5" ry="19.5"/>
<text text-anchor="middle" x="294.89" y="-293.3" font-family="Times,serif" font-size="14.00">&#45;1</text>
</g>
<!-- 0&#45;&gt;&#45;1 -->
<g id="edge3" class="edge">
<title>0&#45;&gt;&#45;1</title>
<path fill="none" stroke="black" d="M20.92,-206.87C24.93,-240.51 35.41,-311.21 54,-326 65.87,-335.45 249.36,-328.89 257.39,-326 262.82,-324.05 268.05,-320.94 272.78,-317.46"/>
<polygon fill="black" stroke="black" points="275.16,-320.04 280.67,-310.99 270.72,-314.63 275.16,-320.04"/>
<text text-anchor="middle" x="144" y="-333.8" font-family="Times,serif" font-size="14.00">0</text>
</g>
<!-- &#45;100 -->
<g id="node5" class="node">
<title>&#45;100</title>
<ellipse fill="none" stroke="black" cx="198.19" cy="-238" rx="31.4" ry="31.4"/>
<text text-anchor="middle" x="198.19" y="-234.3" font-family="Times,serif" font-size="14.00">&#45;100</text>
</g>
<!-- &#45;2&#45;&gt;&#45;100 -->
<g id="edge16" class="edge">
<title>&#45;2&#45;&gt;&#45;100</title>
<path fill="none" stroke="black" d="M115.18,-203.2C121.71,-209.76 130.16,-217.15 139,-222 144.72,-225.14 151.11,-227.7 157.5,-229.78"/>
<polygon fill="black" stroke="black" points="156.87,-233.24 167.45,-232.66 158.81,-226.51 156.87,-233.24"/>
<text text-anchor="middle" x="144" y="-229.8" font-family="Times,serif" font-size="14.00">4</text>
</g>
<!-- 2 -->
<g id="node8" class="node">
<title>2</title>
<ellipse fill="none" stroke="black" cx="563.58" cy="-134" rx="18" ry="18"/>
<text text-anchor="middle" x="563.58" y="-130.3" font-family="Times,serif" font-size="14.00">2</text>
</g>
<!-- &#45;2&#45;&gt;2 -->
<g id="edge15" class="edge">
<title>&#45;2&#45;&gt;2</title>
<path fill="none" stroke="black" d="M121.1,-188.38C150.18,-187.49 208.19,-186.07 257.39,-187 292.52,-187.67 301.25,-190 336.39,-190 336.39,-190 336.39,-190 471.99,-190 499.95,-190 526.5,-170.45 543.54,-154.45"/>
<polygon fill="black" stroke="black" points="546.44,-156.5 551.1,-146.99 541.53,-151.52 546.44,-156.5"/>
<text text-anchor="middle" x="337.39" y="-193.8" font-family="Times,serif" font-size="14.00">1</text>
</g>
<!-- 100&#45;&gt;0 -->
<g id="edge10" class="edge">
<title>100&#45;&gt;0</title>
<path fill="none" stroke="black" d="M464.15,-105.12C454.17,-66.12 429.82,0 379.39,0 100.5,0 100.5,0 100.5,0 31.3,0 20.16,-108.16 18.83,-160.83"/>
<polygon fill="black" stroke="black" points="15.33,-160.83 18.68,-170.88 22.33,-160.93 15.33,-160.83"/>
<text text-anchor="middle" x="252.39" y="-3.8" font-family="Times,serif" font-size="14.00">0</text>
</g>
<!-- 1 -->
<g id="node6" class="node">
<title>1</title>
<ellipse fill="none" stroke="black" cx="378.39" cy="-133" rx="18" ry="18"/>
<text text-anchor="middle" x="378.39" y="-129.3" font-family="Times,serif" font-size="14.00">1</text>
</g>
<!-- 100&#45;&gt;1 -->
<g id="edge11" class="edge">
<title>100&#45;&gt;1</title>
<path fill="none" stroke="black" d="M446.16,-118.45C436.41,-114.19 424.97,-111.31 414.39,-114 410.43,-115.01 406.43,-116.56 402.63,-118.35"/>
<polygon fill="black" stroke="black" points="400.86,-115.33 393.7,-123.13 404.17,-121.5 400.86,-115.33"/>
<text text-anchor="middle" x="419.39" y="-117.8" font-family="Times,serif" font-size="14.00">0</text>
</g>
<!-- 100&#45;&gt;2 -->
<g id="edge12" class="edge">
<title>100&#45;&gt;2</title>
<path fill="none" stroke="black" d="M499.66,-133.31C510.94,-133.43 523.94,-133.57 535.19,-133.7"/>
<polygon fill="black" stroke="black" points="535.29,-137.2 545.33,-133.81 535.36,-130.2 535.29,-137.2"/>
<text text-anchor="middle" x="522.58" y="-137.8" font-family="Times,serif" font-size="14.00">0</text>
</g>
<!-- &#45;1&#45;&gt;0 -->
<g id="edge4" class="edge">
<title>&#45;1&#45;&gt;0</title>
<path fill="none" stroke="black" d="M275.24,-296.54C249.98,-295.4 203.81,-291.48 167,-278 118.73,-260.33 68.73,-226.41 40.97,-205.93"/>
<polygon fill="black" stroke="black" points="42.87,-202.98 32.77,-199.79 38.68,-208.59 42.87,-202.98"/>
<text text-anchor="middle" x="144" y="-273.8" font-family="Times,serif" font-size="14.00">1</text>
</g>
<!-- &#45;1&#45;&gt;&#45;100 -->
<g id="edge5" class="edge">
<title>&#45;1&#45;&gt;&#45;100</title>
<path fill="none" stroke="black" d="M286.23,-279.28C280.18,-267.53 270.55,-252.87 257.39,-245 251.95,-241.74 245.7,-239.66 239.37,-238.36"/>
<polygon fill="black" stroke="black" points="239.85,-234.9 229.45,-236.93 238.85,-241.83 239.85,-234.9"/>
<text text-anchor="middle" x="252.39" y="-248.8" font-family="Times,serif" font-size="14.00">2</text>
</g>
<!-- &#45;100&#45;&gt;&#45;2 -->
<g id="edge19" class="edge">
<title>&#45;100&#45;&gt;&#45;2</title>
<path fill="none" stroke="black" d="M173.69,-218.51C166.14,-212.93 157.52,-207.23 149,-203 143.29,-200.17 136.89,-197.79 130.72,-195.84"/>
<polygon fill="black" stroke="black" points="131.27,-192.36 120.7,-192.97 129.34,-199.09 131.27,-192.36"/>
<text text-anchor="middle" x="144" y="-206.8" font-family="Times,serif" font-size="14.00">1</text>
</g>
<!-- &#45;100&#45;&gt;&#45;1 -->
<g id="edge17" class="edge">
<title>&#45;100&#45;&gt;&#45;1</title>
<path fill="none" stroke="black" d="M225.07,-254.12C238.77,-262.66 255.52,-273.1 269.07,-281.53"/>
<polygon fill="black" stroke="black" points="267.51,-284.69 277.85,-287.01 271.22,-278.75 267.51,-284.69"/>
<text text-anchor="middle" x="252.39" y="-275.8" font-family="Times,serif" font-size="14.00">1</text>
</g>
<!-- &#45;3 -->
<g id="node7" class="node">
<title>&#45;3</title>
<ellipse fill="none" stroke="black" cx="294.89" cy="-143" rx="19.5" ry="19.5"/>
<text text-anchor="middle" x="294.89" y="-139.3" font-family="Times,serif" font-size="14.00">&#45;3</text>
</g>
<!-- &#45;100&#45;&gt;&#45;3 -->
<g id="edge18" class="edge">
<title>&#45;100&#45;&gt;&#45;3</title>
<path fill="none" stroke="black" d="M222.05,-217.72C232.98,-207.79 246.11,-195.52 257.39,-184 263.08,-178.2 269.02,-171.71 274.43,-165.64"/>
<polygon fill="black" stroke="black" points="277.41,-167.55 281.38,-157.73 272.15,-162.93 277.41,-167.55"/>
<text text-anchor="middle" x="252.39" y="-197.8" font-family="Times,serif" font-size="14.00">1</text>
</g>
<!-- 1&#45;&gt;100 -->
<g id="edge6" class="edge">
<title>1&#45;&gt;100</title>
<path fill="none" stroke="black" d="M396.43,-133C406.52,-133 419.73,-133 432.16,-133"/>
<polygon fill="black" stroke="black" points="432.34,-136.5 442.34,-133 432.34,-129.5 432.34,-136.5"/>
<text text-anchor="middle" x="419.39" y="-136.8" font-family="Times,serif" font-size="14.00">1</text>
</g>
<!-- 1&#45;&gt;&#45;3 -->
<g id="edge7" class="edge">
<title>1&#45;&gt;&#45;3</title>
<path fill="none" stroke="black" d="M363.74,-122.16C354.89,-116.48 343.06,-111.38 332.39,-115 327,-116.83 321.78,-119.81 317.06,-123.16"/>
<polygon fill="black" stroke="black" points="314.83,-120.46 309.16,-129.41 319.17,-125.95 314.83,-120.46"/>
<text text-anchor="middle" x="337.39" y="-118.8" font-family="Times,serif" font-size="14.00">0</text>
</g>
<!-- &#45;3&#45;&gt;&#45;100 -->
<g id="edge9" class="edge">
<title>&#45;3&#45;&gt;&#45;100</title>
<path fill="none" stroke="black" d="M276.78,-150.26C267.43,-154.76 256.03,-161.18 247.39,-169 236.86,-178.53 227.37,-190.77 219.66,-202.29"/>
<polygon fill="black" stroke="black" points="216.59,-200.6 214.12,-210.91 222.47,-204.39 216.59,-200.6"/>
<text text-anchor="middle" x="252.39" y="-172.8" font-family="Times,serif" font-size="14.00">0</text>
</g>
<!-- &#45;3&#45;&gt;1 -->
<g id="edge8" class="edge">
<title>&#45;3&#45;&gt;1</title>
<path fill="none" stroke="black" d="M314.38,-140.73C324.95,-139.43 338.41,-137.78 350.17,-136.34"/>
<polygon fill="black" stroke="black" points="350.86,-139.78 360.36,-135.09 350.01,-132.83 350.86,-139.78"/>
<text text-anchor="middle" x="337.39" y="-142.8" font-family="Times,serif" font-size="14.00">1</text>
</g>
<!-- 2&#45;&gt;&#45;2 -->
<g id="edge14" class="edge">
<title>2&#45;&gt;&#45;2</title>
<path fill="none" stroke="black" d="M551.2,-120.55C535.35,-103.41 504.85,-76 471.99,-76 197.19,-76 197.19,-76 197.19,-76 153,-76 125.35,-127.39 112.03,-160.86"/>
<polygon fill="black" stroke="black" points="108.61,-160 108.35,-170.59 115.16,-162.48 108.61,-160"/>
<text text-anchor="middle" x="337.39" y="-79.8" font-family="Times,serif" font-size="14.00">0</text>
</g>
<!-- 2&#45;&gt;100 -->
<g id="edge13" class="edge">
<title>2&#45;&gt;100</title>
<path fill="none" stroke="black" d="M548.27,-124.13C542.18,-120.51 534.82,-116.84 527.58,-115 520.42,-113.18 512.82,-113.86 505.63,-115.75"/>
<polygon fill="black" stroke="black" points="504.49,-112.44 496.14,-118.98 506.74,-119.07 504.49,-112.44"/>
<text text-anchor="middle" x="522.58" y="-118.8" font-family="Times,serif" font-size="14.00">1</text>
</g>
</g>
</svg>
