<?xml version="1.0" encoding="UTF-8" standalone="no"?>
<!DOCTYPE svg PUBLIC "-//W3C//DTD SVG 1.1//EN"
 "http://www.w3.org/Graphics/SVG/1.1/DTD/svg11.dtd">
<!-- Generated by graphviz version 2.43.0 (0)
 -->
<!-- Title: finite_state_machine Pages: 1 -->
<svg width="341pt" height="167pt"
 viewBox="0.00 0.00 340.59 167.00" xmlns="http://www.w3.org/2000/svg" xmlns:xlink="http://www.w3.org/1999/xlink">
<g id="graph0" class="graph" transform="scale(1 1) rotate(0) translate(4 163)">
<title>finite_state_machine</title>
<polygon fill="white" stroke="transparent" points="-4,4 -4,-163 336.59,-163 336.59,4 -4,4"/>
<!-- &#45;1 -->
<g id="node1" class="node">
<title>&#45;1</title>
<ellipse fill="none" stroke="black" cx="204.69" cy="-19.5" rx="19.5" ry="19.5"/>
<text text-anchor="middle" x="204.69" y="-15.8" font-family="Times,serif" font-size="14.00">&#45;1</text>
</g>
<!-- &#45;100 -->
<g id="node2" class="node">
<title>&#45;100</title>
<ellipse fill="none" stroke="black" cx="301.39" cy="-80.5" rx="31.4" ry="31.4"/>
<text text-anchor="middle" x="301.39" y="-76.8" font-family="Times,serif" font-size="14.00">&#45;100</text>
</g>
<!-- &#45;1&#45;&gt;&#45;100 -->
<g id="edge1" class="edge">
<title>&#45;1&#45;&gt;&#45;100</title>
<path fill="none" stroke="black" d="M221.76,-29.85C233.84,-37.63 250.85,-48.59 265.96,-58.32"/>
<polygon fill="black" stroke="black" points="264.28,-61.4 274.59,-63.88 268.07,-55.52 264.28,-61.4"/>
<text text-anchor="middle" x="247.19" y="-51.3" font-family="Times,serif" font-size="14.00">3</text>
</g>
<!-- &#45;2 -->
<g id="node3" class="node">
<title>&#45;2</title>
<ellipse fill="none" stroke="black" cx="204.69" cy="-80.5" rx="19.5" ry="19.5"/>
<text text-anchor="middle" x="204.69" y="-76.8" font-family="Times,serif" font-size="14.00">&#45;2</text>
</g>
<!-- &#45;2&#45;&gt;&#45;100 -->
<g id="edge2" class="edge">
<title>&#45;2&#45;&gt;&#45;100</title>
<path fill="none" stroke="black" d="M224.4,-80.5C234.59,-80.5 247.62,-80.5 260,-80.5"/>
<polygon fill="black" stroke="black" points="260.16,-84 270.16,-80.5 260.16,-77 260.16,-84"/>
<text text-anchor="middle" x="247.19" y="-84.3" font-family="Times,serif" font-size="14.00">5</text>
</g>
<!-- &#45;3 -->
<g id="node4" class="node">
<title>&#45;3</title>
<ellipse fill="none" stroke="black" cx="204.69" cy="-139.5" rx="19.5" ry="19.5"/>
<text text-anchor="middle" x="204.69" y="-135.8" font-family="Times,serif" font-size="14.00">&#45;3</text>
</g>
<!-- &#45;3&#45;&gt;&#45;100 -->
<g id="edge3" class="edge">
<title>&#45;3&#45;&gt;&#45;100</title>
<path fill="none" stroke="black" d="M221.76,-129.49C233.84,-121.96 250.85,-111.36 265.96,-101.95"/>
<polygon fill="black" stroke="black" points="267.95,-104.83 274.59,-96.58 264.25,-98.89 267.95,-104.83"/>
<text text-anchor="middle" x="247.19" y="-118.3" font-family="Times,serif" font-size="14.00">1</text>
</g>
<!-- 2 -->
<g id="node5" class="node">
<title>2</title>
<ellipse fill="none" stroke="black" cx="121.19" cy="-86.5" rx="18" ry="18"/>
<text text-anchor="middle" x="121.19" y="-82.8" font-family="Times,serif" font-size="14.00">2</text>
</g>
<!-- 2&#45;&gt;&#45;2 -->
<g id="edge4" class="edge">
<title>2&#45;&gt;&#45;2</title>
<path fill="none" stroke="black" d="M139.48,-85.23C149.71,-84.47 162.93,-83.5 174.72,-82.63"/>
<polygon fill="black" stroke="black" points="175.3,-86.1 185.02,-81.87 174.78,-79.12 175.3,-86.1"/>
<text text-anchor="middle" x="162.19" y="-87.3" font-family="Times,serif" font-size="14.00">1</text>
</g>
<!-- 1 -->
<g id="node6" class="node">
<title>1</title>
<ellipse fill="none" stroke="black" cx="121.19" cy="-140.5" rx="18" ry="18"/>
<text text-anchor="middle" x="121.19" y="-136.8" font-family="Times,serif" font-size="14.00">1</text>
</g>
<!-- 1&#45;&gt;&#45;3 -->
<g id="edge5" class="edge">
<title>1&#45;&gt;&#45;3</title>
<path fill="none" stroke="black" d="M139.48,-140.29C149.71,-140.16 162.93,-140 174.72,-139.85"/>
<polygon fill="black" stroke="black" points="175.06,-143.35 185.02,-139.73 174.97,-136.35 175.06,-143.35"/>
<text text-anchor="middle" x="162.19" y="-143.3" font-family="Times,serif" font-size="14.00">1</text>
</g>
<!-- 100 -->
<g id="node7" class="node">
<title>100</title>
<ellipse fill="none" stroke="black" cx="28.6" cy="-86.5" rx="28.7" ry="28.7"/>
<text text-anchor="middle" x="28.6" y="-82.8" font-family="Times,serif" font-size="14.00">100</text>
</g>
<!-- 100&#45;&gt;2 -->
<g id="edge6" class="edge">
<title>100&#45;&gt;2</title>
<path fill="none" stroke="black" d="M57.27,-86.5C68.55,-86.5 81.56,-86.5 92.8,-86.5"/>
<polygon fill="black" stroke="black" points="92.94,-90 102.94,-86.5 92.94,-83 92.94,-90"/>
<text text-anchor="middle" x="80.19" y="-90.3" font-family="Times,serif" font-size="14.00">1</text>
</g>
<!-- 100&#45;&gt;1 -->
<g id="edge7" class="edge">
<title>100&#45;&gt;1</title>
<path fill="none" stroke="black" d="M53.88,-100.97C67.04,-108.81 83.24,-118.47 96.33,-126.27"/>
<polygon fill="black" stroke="black" points="94.85,-129.46 105.23,-131.58 98.43,-123.45 94.85,-129.46"/>
<text text-anchor="middle" x="80.19" y="-121.3" font-family="Times,serif" font-size="14.00">1</text>
</g>
<!-- 0 -->
<g id="node8" class="node">
<title>0</title>
<ellipse fill="none" stroke="black" cx="121.19" cy="-32.5" rx="18" ry="18"/>
<text text-anchor="middle" x="121.19" y="-28.8" font-family="Times,serif" font-size="14.00">0</text>
</g>
<!-- 100&#45;&gt;0 -->
<g id="edge8" class="edge">
<title>100&#45;&gt;0</title>
<path fill="none" stroke="black" d="M53.88,-72.03C67.04,-64.18 83.24,-54.53 96.33,-46.72"/>
<polygon fill="black" stroke="black" points="98.43,-49.55 105.23,-41.42 94.85,-43.53 98.43,-49.55"/>
<text text-anchor="middle" x="80.19" y="-61.3" font-family="Times,serif" font-size="14.00">1</text>
</g>
<!-- 0&#45;&gt;&#45;1 -->
<g id="edge10" class="edge">
<title>0&#45;&gt;&#45;1</title>
<path fill="none" stroke="black" d="M136.1,-22.33C142.25,-18.44 149.75,-14.47 157.19,-12.5 163.16,-10.91 169.66,-10.88 175.85,-11.61"/>
<polygon fill="black" stroke="black" points="175.38,-15.08 185.84,-13.43 176.63,-8.19 175.38,-15.08"/>
<text text-anchor="middle" x="162.19" y="-16.3" font-family="Times,serif" font-size="14.00">1</text>
</g>
<!-- 0&#45;&gt;&#45;2 -->
<g id="edge9" class="edge">
<title>0&#45;&gt;&#45;2</title>
<path fill="none" stroke="black" d="M137.14,-41.3C148.72,-48.12 165.01,-57.71 178.58,-65.71"/>
<polygon fill="black" stroke="black" points="177.05,-68.87 187.44,-70.93 180.6,-62.84 177.05,-68.87"/>
<text text-anchor="middle" x="162.19" y="-61.3" font-family="Times,serif" font-size="14.00">1</text>
</g>
</g>
</svg>
