<?xml version="1.0" encoding="UTF-8" standalone="no"?>
<!DOCTYPE svg PUBLIC "-//W3C//DTD SVG 1.1//EN"
 "http://www.w3.org/Graphics/SVG/1.1/DTD/svg11.dtd">
<!-- Generated by graphviz version 2.43.0 (0)
 -->
<!-- Title: finite_state_machine Pages: 1 -->
<svg width="576pt" height="200pt"
 viewBox="0.00 0.00 576.00 200.28" xmlns="http://www.w3.org/2000/svg" xmlns:xlink="http://www.w3.org/1999/xlink">
<g id="graph0" class="graph" transform="scale(1.02 1.02) rotate(0) translate(4 201)">
<title>finite_state_machine</title>
<polygon fill="white" stroke="transparent" points="-4,4 -4,-201 585.58,-201 585.58,4 -4,4"/>
<!-- 0 -->
<g id="node1" class="node">
<title>0</title>
<ellipse fill="none" stroke="black" cx="18" cy="-130" rx="18" ry="18"/>
<text text-anchor="middle" x="18" y="-126.3" font-family="Times,serif" font-size="14.00">0</text>
</g>
<!-- 100 -->
<g id="node2" class="node">
<title>100</title>
<ellipse fill="none" stroke="black" cx="110.6" cy="-72" rx="28.7" ry="28.7"/>
<text text-anchor="middle" x="110.6" y="-68.3" font-family="Times,serif" font-size="14.00">100</text>
</g>
<!-- 0&#45;&gt;100 -->
<g id="edge1" class="edge">
<title>0&#45;&gt;100</title>
<path fill="none" stroke="black" d="M33.56,-120.68C45.35,-113.13 62.4,-102.22 77.37,-92.63"/>
<polygon fill="black" stroke="black" points="79.35,-95.52 85.89,-87.18 75.58,-89.62 79.35,-95.52"/>
<text text-anchor="middle" x="59" y="-109.8" font-family="Times,serif" font-size="14.00">1</text>
</g>
<!-- &#45;1 -->
<g id="node3" class="node">
<title>&#45;1</title>
<ellipse fill="none" stroke="black" cx="286.69" cy="-134" rx="19.5" ry="19.5"/>
<text text-anchor="middle" x="286.69" y="-130.3" font-family="Times,serif" font-size="14.00">&#45;1</text>
</g>
<!-- 0&#45;&gt;&#45;1 -->
<g id="edge2" class="edge">
<title>0&#45;&gt;&#45;1</title>
<path fill="none" stroke="black" d="M36.09,-130.26C80.71,-130.93 201.12,-132.73 256.77,-133.57"/>
<polygon fill="black" stroke="black" points="256.94,-137.07 266.99,-133.72 257.04,-130.07 256.94,-137.07"/>
<text text-anchor="middle" x="162.19" y="-135.8" font-family="Times,serif" font-size="14.00">0</text>
</g>
<!-- 100&#45;&gt;0 -->
<g id="edge3" class="edge">
<title>100&#45;&gt;0</title>
<path fill="none" stroke="black" d="M81.81,-73.47C72.42,-74.98 62.24,-77.8 54,-83 45.28,-88.5 37.98,-97.01 32.34,-105.29"/>
<polygon fill="black" stroke="black" points="29.21,-103.69 26.89,-114.02 35.15,-107.4 29.21,-103.69"/>
<text text-anchor="middle" x="59" y="-86.8" font-family="Times,serif" font-size="14.00">0</text>
</g>
<!-- 1 -->
<g id="node4" class="node">
<title>1</title>
<ellipse fill="none" stroke="black" cx="563.58" cy="-92" rx="18" ry="18"/>
<text text-anchor="middle" x="563.58" y="-88.3" font-family="Times,serif" font-size="14.00">1</text>
</g>
<!-- 100&#45;&gt;1 -->
<g id="edge4" class="edge">
<title>100&#45;&gt;1</title>
<path fill="none" stroke="black" d="M127.31,-48.42C143.38,-27.43 170.45,0 202.19,0 202.19,0 202.19,0 481.08,0 504.34,0 511.15,-7.55 527.58,-24 539.21,-35.64 547.78,-51.95 553.53,-65.67"/>
<polygon fill="black" stroke="black" points="550.32,-67.07 557.22,-75.11 556.84,-64.52 550.32,-67.07"/>
<text text-anchor="middle" x="329.19" y="-3.8" font-family="Times,serif" font-size="14.00">0</text>
</g>
<!-- 2 -->
<g id="node5" class="node">
<title>2</title>
<ellipse fill="none" stroke="black" cx="203.19" cy="-93" rx="18" ry="18"/>
<text text-anchor="middle" x="203.19" y="-89.3" font-family="Times,serif" font-size="14.00">2</text>
</g>
<!-- 100&#45;&gt;2 -->
<g id="edge5" class="edge">
<title>100&#45;&gt;2</title>
<path fill="none" stroke="black" d="M137.89,-81.57C144.15,-83.59 150.86,-85.55 157.19,-87 162.86,-88.3 169,-89.35 174.86,-90.18"/>
<polygon fill="black" stroke="black" points="174.61,-93.68 184.97,-91.46 175.49,-86.73 174.61,-93.68"/>
<text text-anchor="middle" x="162.19" y="-92.8" font-family="Times,serif" font-size="14.00">0</text>
</g>
<!-- &#45;1&#45;&gt;0 -->
<g id="edge8" class="edge">
<title>&#45;1&#45;&gt;0</title>
<path fill="none" stroke="black" d="M268.54,-141.28C262.53,-143.51 255.66,-145.72 249.19,-147 164.08,-163.85 138.59,-163.28 54,-144 50.75,-143.26 47.4,-142.26 44.13,-141.13"/>
<polygon fill="black" stroke="black" points="45.28,-137.82 34.69,-137.49 42.77,-144.35 45.28,-137.82"/>
<text text-anchor="middle" x="162.19" y="-162.8" font-family="Times,serif" font-size="14.00">1</text>
</g>
<!-- &#45;1&#45;&gt;1 -->
<g id="edge11" class="edge">
<title>&#45;1&#45;&gt;1</title>
<path fill="none" stroke="black" d="M302.25,-122.07C314.67,-112.7 333.45,-100.37 352.19,-95 415.86,-76.76 494.87,-82.85 535.56,-87.96"/>
<polygon fill="black" stroke="black" points="535.13,-91.43 545.51,-89.29 536.06,-84.49 535.13,-91.43"/>
<text text-anchor="middle" x="437.59" y="-87.8" font-family="Times,serif" font-size="14.00">0</text>
</g>
<!-- &#45;1&#45;&gt;2 -->
<g id="edge10" class="edge">
<title>&#45;1&#45;&gt;2</title>
<path fill="none" stroke="black" d="M276.18,-117.28C269.86,-107.96 260.62,-97.21 249.19,-92 243.64,-89.47 237.28,-88.57 231.13,-88.56"/>
<polygon fill="black" stroke="black" points="230.89,-85.06 221.15,-89.21 231.35,-92.05 230.89,-85.06"/>
<text text-anchor="middle" x="244.19" y="-95.8" font-family="Times,serif" font-size="14.00">1</text>
</g>
<!-- &#45;100 -->
<g id="node6" class="node">
<title>&#45;100</title>
<ellipse fill="none" stroke="black" cx="383.39" cy="-135" rx="31.4" ry="31.4"/>
<text text-anchor="middle" x="383.39" y="-131.3" font-family="Times,serif" font-size="14.00">&#45;100</text>
</g>
<!-- &#45;1&#45;&gt;&#45;100 -->
<g id="edge9" class="edge">
<title>&#45;1&#45;&gt;&#45;100</title>
<path fill="none" stroke="black" d="M305.28,-127.57C311.2,-125.71 317.91,-123.93 324.19,-123 330.55,-122.06 337.27,-122.29 343.79,-123.18"/>
<polygon fill="black" stroke="black" points="343.32,-126.65 353.79,-125.04 344.6,-119.77 343.32,-126.65"/>
<text text-anchor="middle" x="329.19" y="-126.8" font-family="Times,serif" font-size="14.00">0</text>
</g>
<!-- 1&#45;&gt;100 -->
<g id="edge12" class="edge">
<title>1&#45;&gt;100</title>
<path fill="none" stroke="black" d="M551.45,-78.37C537.03,-62.38 510.28,-38 481.08,-38 202.19,-38 202.19,-38 202.19,-38 182.39,-38 161.62,-45.21 144.97,-52.99"/>
<polygon fill="black" stroke="black" points="143.09,-50.01 135.68,-57.58 146.19,-56.28 143.09,-50.01"/>
<text text-anchor="middle" x="329.19" y="-41.8" font-family="Times,serif" font-size="14.00">1</text>
</g>
<!-- 1&#45;&gt;&#45;1 -->
<g id="edge13" class="edge">
<title>1&#45;&gt;&#45;1</title>
<path fill="none" stroke="black" d="M555.27,-108.3C549.21,-120.41 539.64,-136.72 527.58,-148 517.27,-157.64 513,-158.61 499.58,-163 437.11,-183.43 415.3,-193.36 352.19,-175 336.81,-170.53 321.6,-161.16 309.81,-152.5"/>
<polygon fill="black" stroke="black" points="311.94,-149.73 301.88,-146.41 307.68,-155.28 311.94,-149.73"/>
<text text-anchor="middle" x="437.59" y="-185.8" font-family="Times,serif" font-size="14.00">1</text>
</g>
<!-- &#45;2 -->
<g id="node7" class="node">
<title>&#45;2</title>
<ellipse fill="none" stroke="black" cx="480.08" cy="-135" rx="19.5" ry="19.5"/>
<text text-anchor="middle" x="480.08" y="-131.3" font-family="Times,serif" font-size="14.00">&#45;2</text>
</g>
<!-- 1&#45;&gt;&#45;2 -->
<g id="edge14" class="edge">
<title>1&#45;&gt;&#45;2</title>
<path fill="none" stroke="black" d="M551.57,-105.43C545.25,-112.29 536.75,-120.18 527.58,-125 522.06,-127.9 515.74,-129.96 509.58,-131.43"/>
<polygon fill="black" stroke="black" points="508.69,-128.04 499.53,-133.37 510.02,-134.91 508.69,-128.04"/>
<text text-anchor="middle" x="522.58" y="-132.8" font-family="Times,serif" font-size="14.00">0</text>
</g>
<!-- 2&#45;&gt;100 -->
<g id="edge6" class="edge">
<title>2&#45;&gt;100</title>
<path fill="none" stroke="black" d="M189.64,-81.12C183.4,-76.02 175.44,-70.64 167.19,-68 161.41,-66.15 155.12,-65.44 148.92,-65.44"/>
<polygon fill="black" stroke="black" points="148.46,-61.95 138.67,-66 148.85,-68.94 148.46,-61.95"/>
<text text-anchor="middle" x="162.19" y="-71.8" font-family="Times,serif" font-size="14.00">1</text>
</g>
<!-- 2&#45;&gt;&#45;1 -->
<g id="edge7" class="edge">
<title>2&#45;&gt;&#45;1</title>
<path fill="none" stroke="black" d="M219.52,-100.71C230.88,-106.42 246.62,-114.34 259.89,-121.02"/>
<polygon fill="black" stroke="black" points="258.52,-124.25 269.03,-125.62 261.67,-118 258.52,-124.25"/>
<text text-anchor="middle" x="244.19" y="-117.8" font-family="Times,serif" font-size="14.00">0</text>
</g>
<!-- &#45;100&#45;&gt;&#45;1 -->
<g id="edge17" class="edge">
<title>&#45;100&#45;&gt;&#45;1</title>
<path fill="none" stroke="black" d="M352.18,-137.77C343.18,-138.27 333.28,-138.5 324.19,-138 321.63,-137.86 318.97,-137.67 316.31,-137.44"/>
<polygon fill="black" stroke="black" points="316.53,-133.94 306.23,-136.43 315.83,-140.91 316.53,-133.94"/>
<text text-anchor="middle" x="329.19" y="-141.8" font-family="Times,serif" font-size="14.00">2</text>
</g>
<!-- &#45;100&#45;&gt;&#45;2 -->
<g id="edge18" class="edge">
<title>&#45;100&#45;&gt;&#45;2</title>
<path fill="none" stroke="black" d="M410.8,-119.85C420.68,-115.92 432.06,-113.42 442.59,-116 446.53,-116.97 450.53,-118.44 454.35,-120.15"/>
<polygon fill="black" stroke="black" points="452.89,-123.33 463.39,-124.73 456.05,-117.09 452.89,-123.33"/>
<text text-anchor="middle" x="437.59" y="-119.8" font-family="Times,serif" font-size="14.00">1</text>
</g>
<!-- &#45;2&#45;&gt;1 -->
<g id="edge15" class="edge">
<title>&#45;2&#45;&gt;1</title>
<path fill="none" stroke="black" d="M494.79,-122.11C501.3,-116.54 509.43,-110.31 517.58,-106 523.24,-103.01 529.63,-100.54 535.79,-98.55"/>
<polygon fill="black" stroke="black" points="537.13,-101.81 545.75,-95.66 535.17,-95.09 537.13,-101.81"/>
<text text-anchor="middle" x="522.58" y="-109.8" font-family="Times,serif" font-size="14.00">1</text>
</g>
<!-- &#45;2&#45;&gt;&#45;100 -->
<g id="edge16" class="edge">
<title>&#45;2&#45;&gt;&#45;100</title>
<path fill="none" stroke="black" d="M460.42,-135C450.23,-135 437.19,-135 424.79,-135"/>
<polygon fill="black" stroke="black" points="424.61,-131.5 414.61,-135 424.61,-138.5 424.61,-131.5"/>
<text text-anchor="middle" x="437.59" y="-138.8" font-family="Times,serif" font-size="14.00">0</text>
</g>
</g>
</svg>
